<svg width="2997" height="1195" viewBox="0 0 2997 1195" fill="none" xmlns="http://www.w3.org/2000/svg">
<path d="M0 1193C0 1193 1907.26 1193 2886.34 1" stroke="#151515" stroke-width="3"/>
<path opacity="0.16" d="M0 1193C0 1193 1954.25 1193 2935.3 203.13" stroke="#151515" stroke-width="3"/>
<path opacity="0.08" d="M0 1193C0 1193 1920.96 1193 2962.71 495.935" stroke="#151515" stroke-width="3"/>
<path opacity="0.04" d="M0 1193C0 1193 1852.43 1193 2996 896.417" stroke="#151515" stroke-width="3"/>
<path d="M2194.3 610.45C2206.74 610.45 2216.82 600.724 2216.82 588.726C2216.82 576.728 2206.74 567.001 2194.3 567.001C2181.87 567.001 2171.79 576.728 2171.79 588.726C2171.79 600.724 2181.87 610.45 2194.3 610.45Z" fill="#151515"/>
</svg>
