<svg width="150" height="35" viewBox="0 0 150 35" fill="none" xmlns="http://www.w3.org/2000/svg">
<path d="M42.9649 20.7849C43.8566 20.0989 43.9938 20.4876 44.7713 21.2651C45.16 21.6538 46.1661 22.3169 45.5258 22.8886C42.6219 25.381 38.2316 25.0609 35.7392 22.1569C34.596 20.8306 34.0014 19.1386 34.07 17.4008C34.1158 15.5486 34.9389 13.8108 36.3109 12.5989C37.6142 11.5242 39.2835 10.9755 40.9755 11.0212C41.8216 11.0212 42.6447 11.1813 43.4222 11.5014C43.9481 11.7072 44.4511 11.9587 44.9085 12.3017C45.8231 12.9877 45.4115 13.4221 44.6798 14.1309L44.1996 14.6111C43.8338 14.977 43.5822 15.2285 43.1021 14.9084C42.1874 14.2224 40.9984 13.9709 39.878 14.2224C36.288 15.1599 36.4938 21.5395 40.8841 21.5395C41.6615 21.4937 42.3703 21.2422 42.9649 20.7849ZM142.683 24.2834C142.088 24.2834 141.585 23.8032 141.585 23.1859V9.05473C141.585 8.46022 142.065 7.95717 142.683 7.95717H143.849C144.444 7.95717 144.947 8.43735 144.947 9.05473V23.2087C144.947 23.8032 144.466 24.3063 143.849 24.3063L142.683 24.2834ZM136.532 22.6828C135.434 23.8718 133.857 24.5349 132.233 24.5121C128.575 24.5121 126.837 21.4937 126.837 18.1096V12.3703C126.837 11.7758 127.317 11.2727 127.934 11.2727H129.101C129.695 11.2727 130.198 11.7529 130.198 12.3703V18.0867C129.992 19.7331 131.158 21.2194 132.782 21.4251C132.919 21.448 133.056 21.448 133.216 21.448C135.046 21.4023 136.486 19.8703 136.44 18.0639C136.44 18.0181 136.44 17.9724 136.44 17.9267V15.8688C136.44 15.8002 136.44 15.7087 136.44 15.6401V12.3703C136.44 11.7758 136.921 11.2727 137.538 11.2727H138.704C139.299 11.2727 139.802 11.7529 139.802 12.3703V23.2316C139.802 23.8261 139.322 24.3063 138.727 24.3063H137.744C137.149 24.2834 136.692 23.8261 136.669 23.2316V22.6828H136.532ZM122.492 11.3184H124.779C125.373 11.3184 125.854 11.8215 125.854 12.416V13.1706C125.854 13.7651 125.373 14.2681 124.779 14.2681H122.492V23.2087C122.492 23.8032 122.012 24.3063 121.395 24.3063H120.229C119.634 24.3063 119.131 23.8261 119.131 23.2087V10.8611C118.902 8.27729 120.8 6.01357 123.361 5.78491C123.384 5.78491 123.384 5.78491 123.407 5.78491H125.19C125.785 5.78491 126.265 6.28796 126.265 6.88247V7.56845C126.265 8.16296 125.785 8.66601 125.19 8.66601H124.322C123.018 8.66601 122.469 9.67211 122.469 10.884L122.492 11.3184ZM114.352 11.3184H116.844C117.439 11.3184 117.919 11.7986 117.919 12.3931V13.1248C117.919 13.7194 117.439 14.1995 116.844 14.1995H114.352V19.6645C114.352 20.7163 114.855 21.3337 115.93 21.3337H116.433C117.027 21.3337 117.508 21.8139 117.508 22.4084V23.1401C117.508 23.7346 117.027 24.2148 116.433 24.2148H114.924C112.226 24.0548 111.014 22.2941 111.014 19.6645V9.07759C111.014 8.48308 111.494 8.0029 112.088 8.0029H113.232C113.826 8.0029 114.306 8.48308 114.306 9.07759L114.352 11.3184ZM78.2697 11.3184H80.7621C81.3566 11.3184 81.8368 11.7986 81.8368 12.3931V13.1248C81.8368 13.7194 81.3566 14.1995 80.7621 14.1995H78.3383V19.6645C78.3383 20.7163 78.8414 21.3337 79.9161 21.3337H80.4191C81.0136 21.3337 81.4938 21.8139 81.4938 22.4084V23.1401C81.4938 23.7346 81.0136 24.2148 80.4191 24.2148H79.6646C76.7149 24.2148 75.0228 22.9572 75.0228 19.6416V9.07759C75.0228 8.48308 75.503 8.0029 76.0975 8.0029H77.2408C77.8353 8.0029 78.3155 8.48308 78.3155 9.07759V11.3184H78.2697ZM63.6356 12.8962C64.7103 11.7529 66.2194 11.0898 67.7972 11.0669C71.4329 11.0669 73.3536 14.0623 73.3536 17.4694V23.2087C73.3536 23.8032 72.8734 24.3063 72.256 24.3063H71.0899C70.4953 24.3063 69.9923 23.8261 69.9923 23.2087V17.4922C70.1981 15.8459 69.0319 14.3596 67.4085 14.1538C67.2713 14.1309 67.1112 14.1309 66.974 14.1309C65.1447 14.1767 63.7042 15.7087 63.7728 17.5151C63.7728 17.5608 63.7728 17.5837 63.7728 17.6294V23.1859C63.7728 23.7804 63.2926 24.2606 62.6981 24.2606H61.5548C60.9603 24.2606 60.4801 23.7804 60.4801 23.1859V12.3474C60.4801 11.7529 60.9603 11.2727 61.5548 11.2727H62.538C63.1325 11.2956 63.5899 11.7529 63.6127 12.3474L63.6356 12.8962ZM99.7408 12.8962C100.815 11.7529 102.325 11.0898 103.902 11.0669C107.538 11.0669 109.459 14.0623 109.459 17.4694V23.2087C109.459 23.8032 108.979 24.3063 108.361 24.3063H107.195C106.601 24.3063 106.097 23.8261 106.097 23.2087V17.4922C106.303 15.8459 105.137 14.3596 103.514 14.1538C103.376 14.1309 103.216 14.1309 103.079 14.1309C101.25 14.1767 99.8094 15.7087 99.878 17.5151C99.878 17.5608 99.878 17.5837 99.878 17.6294V23.1859C99.878 23.7804 99.3978 24.2606 98.8033 24.2606H97.6371C97.0426 24.2606 96.5624 23.7804 96.5624 23.1859V12.3474C96.5624 11.7529 97.0426 11.2727 97.6371 11.2727H98.6204C99.2149 11.2956 99.6722 11.7529 99.6951 12.3474V12.9191L99.7408 12.8962ZM52.5457 11.0212C48.9328 10.9069 45.9146 13.7194 45.8002 17.3322C45.8002 17.4922 45.8002 17.6523 45.8002 17.8123C45.8002 21.5623 48.8414 24.5807 52.5685 24.5807C56.2957 24.5807 59.3368 21.5395 59.3368 17.8123C59.4511 14.1767 56.6158 11.1355 52.9801 11.0212C52.8429 11.0212 52.6828 11.0212 52.5457 11.0212ZM85.381 19.0242C85.7926 20.6934 87.3932 21.8139 89.1082 21.5852C89.9542 21.5623 90.8002 21.3794 91.5548 21.0364L91.9207 20.8535C92.3322 20.6248 92.6981 20.4876 93.064 20.8535L93.6585 21.448C93.8414 21.6309 94.0243 21.8367 94.1844 22.0197C94.7332 22.7056 94.3444 22.8886 93.7271 23.3002C92.3322 24.2148 90.7088 24.695 89.0396 24.695C84.7408 24.695 81.8826 22.0883 81.8826 17.7437C81.7225 14.1538 84.4893 11.0898 88.1021 10.9297C88.3536 10.9297 88.5822 10.9297 88.8338 10.9297C92.9954 10.9297 95.3963 13.3764 95.4649 17.5608C95.4649 18.7041 95.5335 19.07 94.3444 19.07L85.381 19.0242ZM52.66 14.0623C54.6264 14.1081 56.1813 15.7316 56.1356 17.698C56.1356 17.7209 56.1356 17.7666 56.1356 17.7895C56.2957 19.6645 54.9237 21.3337 53.0258 21.5166C51.1508 21.6767 49.4816 20.3047 49.2987 18.4069C49.2758 18.2011 49.2758 17.9953 49.2987 17.7895C49.1386 15.8916 50.5563 14.2224 52.4542 14.0852C52.5456 14.0852 52.6371 14.0852 52.7057 14.0852L52.66 14.0623ZM85.5411 16.1889H92.2179C91.9435 14.6569 90.503 13.6279 88.971 13.8566C87.439 13.788 86.0441 14.7483 85.5411 16.1889Z" fill="#151515"/>
<path d="M23.0031 12.0274C23.0031 12.0274 25.2439 14.6113 27.5077 12.2332C29.7714 9.85519 26.1814 7.29422 26.1814 7.29422C26.1814 7.29422 18.7729 0.685977 9.87809 7.36281C9.87809 7.36281 5.00766 11.0899 5.23632 18.0183C5.46498 24.9466 11.2958 28.2164 11.2958 28.2164C11.2958 28.2164 18.3613 32.9954 25.8385 27.6448C25.8385 27.6448 29.4741 25.7241 27.3933 22.5457C27.3933 22.5457 25.3354 20.2363 23.5519 22.1799C21.7683 24.1235 17.1494 26.2271 13.0107 22.3399C8.87199 18.4528 11.1128 10.3811 17.6753 10.1296C17.6753 10.1296 20.4878 9.76373 23.0031 12.0274Z" stroke="#151515"  stroke-miterlimit="10"/>
<path d="M10.9071 12.9421C12.4477 12.9421 13.6967 11.6931 13.6967 10.1524C13.6967 8.61175 12.4477 7.36279 10.9071 7.36279C9.36639 7.36279 8.11743 8.61175 8.11743 10.1524C8.11743 11.6931 9.36639 12.9421 10.9071 12.9421Z" stroke="#151515"  stroke-miterlimit="10"/>
<path d="M11.0443 27.1647C12.5849 27.1647 13.8339 25.9158 13.8339 24.3751C13.8339 22.8344 12.5849 21.5854 11.0443 21.5854C9.50359 21.5854 8.25464 22.8344 8.25464 24.3751C8.25464 25.9158 9.50359 27.1647 11.0443 27.1647Z" stroke="#151515"  stroke-miterlimit="10"/>
</svg>