<svg width="125" height="24" viewBox="0 0 125 24" fill="none" xmlns="http://www.w3.org/2000/svg">
<path fill-rule="evenodd" clip-rule="evenodd" d="M35.3435 14.5475C36.1275 13.9203 36.2843 14.3123 36.9114 14.9394C37.225 15.253 38.1658 15.8802 37.5386 16.3505C36.2843 17.3697 35.1868 17.84 33.5404 17.84C29.9343 17.84 27.3473 15.0962 27.5041 11.5685C27.5825 9.92216 28.2096 8.43267 29.464 7.41355C30.6398 6.47283 32.051 6.00245 33.5404 6.08084C34.3244 6.08084 34.9516 6.23762 35.6571 6.47283C36.1275 6.62961 36.5979 6.86478 36.9898 7.17838C37.7738 7.8055 37.3818 8.11911 36.833 8.74627C36.6763 8.90305 36.5979 9.05983 36.4411 9.13822C36.1275 9.45182 35.8923 9.68699 35.5003 9.37343C34.7164 8.82466 33.6189 8.51106 32.6781 8.74627C29.5423 9.53021 29.6991 15.0962 33.5404 15.0962C34.1676 15.1746 34.8732 14.9394 35.3435 14.5475ZM122.44 17.6049C121.891 17.6049 121.499 17.2129 121.499 16.6641V4.35617C121.499 3.8074 121.891 3.41545 122.44 3.41545H123.459C124.008 3.41545 124.4 3.8074 124.4 4.35617V16.6641C124.4 17.2129 124.008 17.6049 123.459 17.6049H122.44ZM117.031 16.1938C115.933 17.2129 114.836 17.7616 113.268 17.7616C110.053 17.7616 108.564 15.0962 108.564 12.1956V7.17838C108.564 6.62961 108.956 6.23762 109.505 6.23762H110.524C111.073 6.23762 111.465 6.62961 111.465 7.17838V12.1956C111.465 13.8419 112.327 15.0962 114.13 15.0962C115.855 15.0962 116.952 13.6067 116.952 12.0388V7.17838C116.952 6.62961 117.344 6.23762 117.893 6.23762H118.912C119.461 6.23762 119.853 6.62961 119.853 7.17838V16.6641C119.853 17.2129 119.461 17.6049 118.912 17.6049H118.05C117.501 17.6049 117.187 17.1345 117.109 16.6641L117.031 16.1938ZM104.801 6.31601H106.761C107.31 6.31601 107.702 6.78639 107.702 7.25677V7.88394C107.702 8.43267 107.31 8.82466 106.761 8.82466H104.801V16.6641C104.801 17.2129 104.409 17.6049 103.86 17.6049H102.841C102.292 17.6049 101.901 17.2129 101.901 16.6641V5.92406C101.901 3.57223 103.233 1.69074 105.663 1.45557H107.153C107.702 1.45557 108.094 1.92595 108.094 2.39629V3.02345C108.094 3.57223 107.702 3.96418 107.153 3.96418H106.369C105.193 3.96418 104.723 4.82651 104.723 5.92406V6.31601H104.801ZM97.6671 6.31601H99.8623C100.411 6.31601 100.803 6.708 100.803 7.25677V7.88394C100.803 8.43267 100.411 8.82466 99.8623 8.82466H97.6671V13.6067C97.6671 14.5475 98.1376 15.0178 99.0784 15.0178H99.5486C100.098 15.0178 100.489 15.4098 100.489 15.9586V16.6641C100.489 17.2129 100.098 17.6049 99.5486 17.6049H98.2161C95.864 17.4481 94.8452 15.9586 94.8452 13.6067V4.35617C94.8452 3.8074 95.2369 3.41545 95.786 3.41545H96.8047C97.3537 3.41545 97.7455 3.8074 97.7455 4.35617V6.31601H97.6671ZM66.2309 6.31601H68.4262C68.9748 6.31601 69.3669 6.708 69.3669 7.25677V7.88394C69.3669 8.43267 68.9748 8.82466 68.4262 8.82466H66.2309V13.6067C66.2309 14.5475 66.7015 15.0962 67.6423 15.0962H68.1124C68.6615 15.0962 69.0532 15.4882 69.0532 16.037V16.6641C69.0532 17.2129 68.6615 17.6049 68.1124 17.6049H67.4854C64.8984 17.6049 63.409 16.5073 63.409 13.6067V4.35617C63.409 3.8074 63.8008 3.41545 64.3494 3.41545H65.3686C65.9176 3.41545 66.3093 3.8074 66.3093 4.35617V6.31601H66.2309ZM53.4528 7.64872C54.472 6.62961 55.6476 6.08084 57.059 6.08084C60.273 6.08084 61.9192 8.66788 61.9192 11.6469V16.6641C61.9192 17.2129 61.5275 17.6049 60.9785 17.6049H59.9593C59.4107 17.6049 59.0189 17.2129 59.0189 16.6641V11.6469C59.0189 10.0006 58.1562 8.74627 56.3535 8.74627C54.6288 8.74627 53.5312 10.1574 53.5312 11.8037V16.6641C53.5312 17.2129 53.139 17.6049 52.5904 17.6049H51.5712C51.0226 17.6049 50.6305 17.2129 50.6305 16.6641V7.17838C50.6305 6.62961 51.0226 6.23762 51.5712 6.23762H52.4336C52.9822 6.23762 53.2959 6.708 53.3743 7.17838L53.4528 7.64872ZM84.9674 7.64872C85.9866 6.62961 87.1622 6.08084 88.5736 6.08084C91.7876 6.08084 93.4338 8.66788 93.4338 11.6469V16.6641C93.4338 17.2129 93.0421 17.6049 92.4931 17.6049H91.4743C90.9253 17.6049 90.5335 17.2129 90.5335 16.6641V11.6469C90.5335 10.0006 89.6712 8.74627 87.8681 8.74627C86.1434 8.74627 85.0458 10.1574 85.0458 11.8037V16.6641C85.0458 17.2129 84.6536 17.6049 84.105 17.6049H83.0858C82.5372 17.6049 82.1451 17.2129 82.1451 16.6641V7.17838C82.1451 6.62961 82.5372 6.23762 83.0858 6.23762H83.9482C84.4968 6.23762 84.8105 6.708 84.8889 7.17838L84.9674 7.64872ZM43.8102 6.00245C40.3609 6.00245 37.9305 8.51106 37.9305 11.9604C37.9305 15.4098 40.3609 17.9184 43.8102 17.9184C47.338 17.9184 49.7681 15.4882 49.7681 11.9604C49.7681 8.51106 47.2596 6.00245 43.8102 6.00245ZM72.5025 12.9796C72.7378 14.5475 74.3056 15.253 75.795 15.253C76.5009 15.253 77.2848 15.0962 77.9118 14.7826C77.9903 14.7043 78.1471 14.7043 78.2256 14.6259C78.6173 14.3907 78.931 14.3123 79.2443 14.6259L79.7934 15.1746L80.2635 15.645C80.7341 16.2721 80.4204 16.4289 79.8718 16.7425C78.6957 17.5265 77.2064 17.9184 75.795 17.9184C72.0324 17.9184 69.5238 15.645 69.5238 11.882C69.5238 8.27589 72.0324 5.92406 75.5601 5.92406C79.2443 5.92406 81.2827 8.04072 81.3612 11.7253C81.3612 12.7444 81.4396 13.058 80.4204 13.058H72.5025V12.9796ZM43.8102 8.66788C45.6133 8.66788 46.789 10.2358 46.789 11.9604C46.789 13.7635 45.6918 15.1746 43.8102 15.1746C41.9287 15.1746 40.8311 13.7635 40.8311 11.9604C40.8311 10.1574 42.0071 8.66788 43.8102 8.66788ZM72.581 10.5493H78.4604C78.2256 9.05983 77.0495 8.51106 75.6386 8.51106C74.1488 8.51106 72.9731 9.21661 72.581 10.5493Z" fill="#F2F2F2" fill-opacity="0.5"/>
<path d="M20.6502 16.3607C20.6072 16.3127 19.5832 15.1807 18.2852 15.1707C17.6052 15.1707 16.9972 15.4537 16.4702 16.0287C15.6972 16.8707 14.1202 17.8787 12.2202 17.9497C10.6222 18.0087 9.13524 17.4017 7.79724 16.1447C6.15324 14.6007 5.64224 12.1287 6.49524 9.84772C7.32924 7.61772 9.24724 6.23172 11.6262 6.14072L11.6702 6.13672C11.6942 6.13372 13.9722 5.87872 15.9952 7.68472C16.1652 7.86972 17.1492 8.88172 18.4702 8.91272C19.2932 8.93072 20.0562 8.57672 20.7402 7.85772C21.3422 7.22572 21.6102 6.51572 21.5372 5.74572C21.3832 4.13572 19.7312 2.86972 19.5072 2.70572C19.2952 2.52172 17.6292 1.12772 15.0312 0.411719C12.5112 -0.283281 8.61124 -0.441281 4.34624 2.76072C4.1524 2.91452 3.96649 3.07806 3.78924 3.25072C3.50924 3.45872 3.26624 3.71272 3.07324 4.00372C0.982959 6.39961 -0.113086 9.50352 0.00923975 12.6807C0.21624 18.9637 5.27424 21.9737 5.65524 22.1907C5.91724 22.3607 8.56124 24.0007 12.1502 23.9997C14.2562 23.9997 16.6882 23.4347 19.1552 21.6777C19.4032 21.5397 20.8692 20.6657 21.2582 19.1577C21.4882 18.2637 21.3002 17.3427 20.6962 16.4207L20.6502 16.3607V16.3607ZM3.71824 18.3307C3.71824 17.2407 4.60524 16.3537 5.69524 16.3537C6.78524 16.3537 7.67224 17.2397 7.67224 18.3307C7.67224 19.4207 6.78524 20.3077 5.69524 20.3077C4.60524 20.3077 3.71824 19.4207 3.71824 18.3307ZM3.85724 4.67372C4.09324 4.39872 4.30824 4.17572 4.48524 4.00372C4.80758 3.78926 5.18608 3.67481 5.57324 3.67472C6.66324 3.67472 7.55024 4.56172 7.55024 5.65172C7.55024 6.74172 6.66324 7.62972 5.57324 7.62972C4.48324 7.62972 3.59624 6.74272 3.59624 5.65272C3.59624 5.29672 3.69224 4.96272 3.85724 4.67472V4.67372ZM12.0242 0.998719C15.9782 0.998719 18.6812 3.33472 18.8502 3.48472L18.8932 3.51872C19.3132 3.81872 20.4252 4.81972 20.5232 5.84272C20.5672 6.31172 20.3972 6.74072 20.0032 7.15572C19.5262 7.65572 19.0202 7.90772 18.4992 7.89372C17.5352 7.87472 16.7562 7.00672 16.7392 6.98872L16.6972 6.94472C14.4052 4.88172 11.8672 5.08972 11.5672 5.12272C10.5135 5.1589 9.48251 5.43889 8.55524 5.94072C8.62468 5.21171 8.42508 4.48248 7.99405 3.89046C7.56302 3.29844 6.93034 2.88453 6.21524 2.72672C8.31824 1.44972 10.2912 0.998719 12.0232 0.998719H12.0242ZM2.65924 6.33972C2.81443 6.99635 3.18643 7.5815 3.71518 8.00065C4.24392 8.4198 4.89852 8.64847 5.57324 8.64972C5.69524 8.64972 5.81324 8.63972 5.93124 8.62572C5.78267 8.90566 5.6524 9.19493 5.54124 9.49172C4.79124 11.4947 4.95124 13.6317 5.90024 15.3457C5.83224 15.3407 5.76424 15.3357 5.69524 15.3357C4.96989 15.337 4.26959 15.6011 3.72406 16.0792C3.17853 16.5572 2.82474 17.2168 2.72824 17.9357C1.67727 16.3672 1.08822 14.5349 1.02824 12.6477C0.947913 10.4311 1.51426 8.23902 2.65824 6.33872L2.65924 6.33972ZM20.2722 18.8997C19.9722 20.0737 18.6572 20.7897 18.6452 20.7957L18.5872 20.8317C12.3002 25.3307 6.45024 21.4987 6.20524 21.3337L6.16924 21.3117C6.15786 21.3051 6.14653 21.2985 6.13524 21.2917C6.89051 21.1788 7.57421 20.7818 8.0468 20.182C8.51938 19.5821 8.74523 18.8244 8.67824 18.0637C9.80224 18.7037 11.0142 19.0147 12.2582 18.9697C14.4722 18.8867 16.3152 17.7057 17.2202 16.7197C17.5472 16.3637 17.8902 16.1897 18.2682 16.1897H18.2732C19.0352 16.1937 19.7332 16.8777 19.8662 17.0157C20.2872 17.6737 20.4242 18.3067 20.2722 18.8997Z" fill="#F2F2F2" fill-opacity="0.5"/>
</svg>
