<svg width="71" height="21" viewBox="0 0 76 27" fill="none" xmlns="http://www.w3.org/2000/svg">
<path d="M12.8544 0.159912H0V26.0337H12.8544C19.2829 26.0337 25.7084 20.2413 25.7084 13.0987C25.7084 5.95607 19.2829 0.159912 12.8544 0.159912ZM12.8544 18.9751C11.6917 18.9746 10.5554 18.6293 9.58899 17.9829C8.62259 17.3366 7.86956 16.4181 7.42512 15.3438C6.98068 14.2695 6.86478 13.0875 7.09208 11.9473C7.31939 10.8071 7.87968 9.75994 8.70212 8.93818C9.52456 8.11642 10.5722 7.55698 11.7126 7.33062C12.853 7.10425 14.0349 7.22113 15.1088 7.66645C16.1828 8.11178 17.1006 8.86557 17.7461 9.83249C18.3917 10.7994 18.736 11.9361 18.7356 13.0987C18.7357 13.8708 18.5836 14.6354 18.288 15.3487C17.9925 16.062 17.5592 16.7101 17.013 17.2559C16.4668 17.8016 15.8183 18.2344 15.1048 18.5294C14.3912 18.8244 13.6265 18.9758 12.8544 18.9751V18.9751Z" fill="#101F30"/>
<path d="M38.2833 0.221412C41.3319 0.221412 42.8953 2.06917 42.8953 4.61229V6.88661C42.8953 9.42939 41.3319 11.2775 38.2833 11.2775H33.4503V0.221412H38.2833ZM40.1788 4.59638C40.1788 3.19076 39.4364 2.44834 37.7938 2.44834H36.1522V9.05023H37.7948C39.4374 9.05023 40.1798 8.30815 40.1798 6.90218L40.1788 4.59638ZM51.5539 9.2239H47.5577L46.9419 11.2775H44.2251L48.1739 0.221412H50.9536L54.9031 11.2782H52.1866L51.5539 9.2239ZM48.2213 7.04437H50.89L49.5636 2.6694L48.2213 7.04437ZM63.7564 0.221412V2.51165H60.7712V11.2782H58.0547V2.51165H55.0695V0.221412H63.7564ZM70.5697 11.4996C67.2215 11.4996 65.5001 9.35155 65.5001 6.46143V5.03851C65.5001 2.14805 67.2215 0 70.5697 0C73.9179 0 75.6401 2.14805 75.6401 5.03851V6.46005C75.6401 9.35017 73.9182 11.4982 70.5697 11.4982V11.4996ZM70.5697 2.26013C68.9904 2.26013 68.2172 3.31842 68.2172 4.89771V6.60362C68.2172 8.18291 68.9911 9.24119 70.5697 9.24119C72.1483 9.24119 72.9222 8.18291 72.9222 6.60362V4.89632C72.9233 3.31703 72.1494 2.25875 70.5697 2.25875V2.26013ZM38.1242 24.0115C39.5772 24.0115 40.2722 23.0639 40.3196 21.9582H42.8309C42.7991 24.2962 41.0776 26.2543 38.1556 26.2543C34.7442 26.2543 33.1016 24.1063 33.1016 21.2317V19.7787C33.1016 16.9038 34.7442 14.7557 38.1556 14.7557C41.0776 14.7557 42.7991 16.7145 42.8309 19.0518H40.321C40.2736 17.9465 39.5786 16.9989 38.1255 16.9989C36.4829 16.9989 35.8194 18.0887 35.8194 19.6524V21.358C35.8194 22.9217 36.4829 24.0115 38.1242 24.0115ZM53.5538 14.9772H56.0492V26.0332H53.4431V20.189L51.7057 23.5693H49.5577L47.8359 20.189V26.0332H45.2301V14.9772H47.7255L50.6315 20.9951L53.5538 14.9772ZM62.9531 26.2553C60.2996 26.2553 58.5149 24.9916 58.5149 22.765V22.4647H61.1209V22.6858C61.1209 23.6178 61.7208 24.1862 62.9687 24.1862C64.0903 24.1862 64.8324 23.7281 64.8324 22.8753C64.8536 22.6465 64.7871 22.4181 64.6464 22.2364C64.5057 22.0546 64.3013 21.9331 64.0744 21.8963L61.3105 21.2009C59.5887 20.7747 58.7044 20.0164 58.7044 18.216C58.7044 16.0206 60.2678 14.7564 62.8905 14.7564C65.3703 14.7564 66.9496 16.0991 66.9496 18.1209V18.3893H64.4383V18.1997C64.4383 17.4577 64.0277 16.8419 62.8905 16.8419C61.9429 16.8419 61.3427 17.1733 61.3427 17.9631C61.3255 18.1751 61.3892 18.3858 61.521 18.5527C61.6529 18.7196 61.8431 18.8303 62.0533 18.8626L64.9912 19.6524C66.76 20.1264 67.4706 21.1054 67.4706 22.6377C67.4696 24.8487 65.5111 26.2543 62.9528 26.2543L62.9531 26.2553Z" fill="#101F30"/>
</svg>
