<svg width="418" height="412" viewBox="0 0 418 412" fill="none" xmlns="http://www.w3.org/2000/svg">
<ellipse cx="208.594" cy="201.506" rx="179.205" ry="181.213" fill="white"/>
<circle cx="209" cy="202" r="175" fill="transparent"/>
<circle r="54.0636" transform="matrix(0.703158 0.711034 -0.703158 0.711034 76.0308 334.205)" fill="#96E6FE"/>
<circle r="54.0636" transform="matrix(0.703158 0.711034 -0.703158 0.711034 341.97 76.8821)" fill="#96E6FE"/>
<circle r="54.0636" transform="matrix(0.703158 0.711034 -0.703158 0.711034 76.0308 76.8821)" fill="#96E6FE"/>
<path d="M335.745 80.138C335.766 82.4381 333.911 84.3214 331.607 84.336C329.305 84.3548 327.43 82.5027 327.418 80.2026C327.397 77.9005 329.249 76.0255 331.547 76.0026C333.851 75.988 335.732 77.8422 335.745 80.138ZM333.707 71.8338C331.407 71.8505 329.524 70.0004 329.509 67.6942C329.49 65.3962 331.336 63.5191 333.643 63.5046C335.938 63.4837 337.826 65.3317 337.834 67.6338C337.859 69.94 336.001 71.813 333.707 71.8338ZM350.334 63.4712C350.343 65.7671 348.499 67.6546 346.199 67.6692C343.895 67.69 342.016 65.8379 342.001 63.5379C341.978 61.2337 343.83 59.3587 346.136 59.3399C348.43 59.3274 350.314 61.1754 350.334 63.4712V63.4712ZM325.334 96.4861C334.891 97.2778 331.468 87.1277 340.309 87.0339L344.139 90.2298C345.093 101.765 330.982 104.338 325.334 96.4861ZM354.637 81.6631C357.61 76.9984 366.816 61.3545 366.816 61.3545C367.551 60.0566 365.922 58.7024 364.785 59.6608C364.785 59.6608 351.093 71.565 347.053 75.338C343.861 78.3214 343.847 79.6839 342.814 84.6027L346.314 87.5194C350.953 85.6131 352.289 85.3527 354.637 81.6631V81.6631ZM328.34 91.6757C323.999 87.884 321.215 82.3443 321.167 76.1609C321.076 64.6816 330.347 55.2649 341.834 55.1711C349.83 55.1274 355.332 59.1399 355.368 62.3525L358.832 59.3191C356.728 54.6878 350.12 50.8919 341.799 51.0023C328.001 51.1169 316.892 62.39 317.001 76.1943C317.049 82.261 319.257 87.7985 322.882 92.1007C324.878 93.1257 327.305 92.7861 328.34 91.6757V91.6757ZM355.001 87.7048C357.207 91.809 352.187 94.7257 347.616 96.0215C346.982 97.9215 345.943 99.607 344.753 100.836C355.701 99.6049 363.63 91.8694 357.807 84.4006C356.851 85.8277 355.939 86.8944 355.001 87.7048V87.7048Z" fill="black"/>
<circle r="54.0636" transform="matrix(0.703158 0.711034 -0.703158 0.711034 341.97 334.205)" fill="#96E6FE"/>
<path d="M190.087 164C169.052 164 152 181.151 152 202.308C152 223.465 169.052 240.616 190.087 240.616C211.122 240.616 228.175 223.465 228.175 202.308C228.175 181.151 211.122 164 190.087 164Z" fill="white"/>
<path d="M228.266 164C207.344 164 190.383 181.151 190.383 202.308C190.383 223.465 207.344 240.616 228.266 240.616C249.189 240.616 266.15 223.465 266.15 202.308C266.15 181.151 249.189 164 228.266 164Z" fill="#2A3CE0"/>
<path fill-rule="evenodd" clip-rule="evenodd" d="M209.073 235.523C197.658 228.908 189.974 216.511 189.974 202.308C189.974 188.106 197.658 175.709 209.073 169.093C220.49 175.708 228.174 188.106 228.174 202.308C228.174 216.483 220.52 228.86 209.141 235.486L209.073 235.523Z" fill="#96E6FE"/>
<path d="M96 53H56V65H59.998C59.998 62.652 60.792 59 64 59H72V92.748C72 95.096 70.35 97 68 97H66V101H85.998V97H84C81.652 97 80 95.096 80 92.748V59H88C91.298 59 92.04 62.652 92.04 65H96V53Z" fill="black"/>
<path d="M55.0125 323.581L53.8542 317.331H98.1375L96.9792 323.581H55.0125V323.581ZM58.1667 313.165L57.2521 309H94.7396L93.825 313.165H58.1667V313.165ZM51 327.748L55.2396 358.996H96.6312L101 327.748H51V327.748ZM58.8792 354.831L56.3354 336.081H95.6271L93.0042 354.831H58.8792Z" fill="black"/>
<path d="M342 306L316 320.182V348.855L342 362.727L368 348.855V320.335L342 306ZM360.696 321.709L342.012 331.679L323.405 321.529L341.988 311.391L360.696 321.709ZM320.727 325.453L339.636 335.765V356.109L320.727 346.021V325.453ZM344.364 356.109V335.782L363.273 325.691V346.019L344.364 356.109Z" fill="black"/>
</svg>
