<svg width="83" height="39" viewBox="0 0 83 39" fill="none" xmlns="http://www.w3.org/2000/svg">
<path d="M40 11V22.8569L41.5258 22.8686V17.2196H45.2063V15.7288H41.5258V12.4908H46.3128V11H40V11ZM49.0616 13.411C49.609 13.411 50.0632 12.9684 50.0632 12.4093C50.0632 11.8503 49.6206 11.4077 49.0616 11.4077C48.5141 11.4077 48.0599 11.8503 48.0599 12.4093C48.0599 12.9684 48.5025 13.411 49.0616 13.411ZM48.2812 14.9018V22.8686H49.807V14.9018H48.2812ZM55.4676 14.6689C53.4409 14.6689 52.0316 16.381 52.0316 18.4193C52.0316 20.4576 53.4409 22.1697 55.4676 22.1697C56.3993 22.1697 57.1564 21.8203 57.7155 21.2263V22.2862C57.7271 23.6023 56.6789 24.6972 55.3511 24.7088C55.3394 24.7088 55.3394 24.7088 55.3278 24.7088C54.8386 24.7088 54.3611 24.5225 53.9767 24.2546L53.208 25.5824C55.025 26.7587 57.4476 26.2346 58.6123 24.4176C59.02 23.777 59.2413 23.0433 59.2413 22.2862V14.9135H57.7155V15.624C57.1564 15.03 56.3993 14.6689 55.4676 14.6689ZM53.5574 18.4193C53.5574 17.1498 54.5241 16.1597 55.6423 16.1597C56.7604 16.1597 57.7155 17.1614 57.7155 18.4193C57.7155 19.6889 56.7488 20.6672 55.6423 20.6672C54.5241 20.6672 53.5574 19.6772 53.5574 18.4193ZM64.7388 16.1597C63.8303 16.1714 63.0965 16.9168 63.1082 17.8253V22.8569H61.5824V14.8902H63.1082V15.624C63.574 15.0067 64.2962 14.6572 65.0765 14.6689C66.1481 14.6689 66.975 15.193 67.4409 16.0083C67.9767 15.1814 68.8852 14.6805 69.8636 14.6689C71.599 14.6689 72.6822 16.0666 72.6822 17.802V22.8569H71.1681V17.8253C71.1681 16.9168 70.4459 16.1714 69.5374 16.1597C68.629 16.1714 67.8952 16.9168 67.9068 17.8253V22.8569H66.3694V17.8253C66.3694 16.9168 65.6473 16.1714 64.7388 16.1597ZM80.812 15.7987C80.1131 15.0649 79.1348 14.6572 78.1215 14.6689C75.8502 14.6689 74.2429 16.5907 74.2429 18.8735C74.2429 21.1681 75.8502 23.0782 78.1215 23.0782C79.1348 23.0782 80.1015 22.6705 80.812 21.9484V22.8569H82.3378V14.8902H80.812V15.7987ZM75.7687 18.8735C75.7687 17.3594 76.9334 16.1481 78.2962 16.1481C79.6473 16.1597 80.812 17.3594 80.812 18.8735C80.812 20.3877 79.6473 21.5874 78.2845 21.5874C76.9451 21.599 75.7687 20.3993 75.7687 18.8735Z" fill="#151515"/>
<path d="M22.3089 13.0649C23.7001 12.3722 24.8164 11.2298 25.4767 9.82296C26.1371 8.41615 26.3027 6.82748 25.9467 5.31471C25.5907 3.80195 24.7341 2.45384 23.5157 1.48911C22.2973 0.52438 20.7887 -0.000368862 19.2346 1.94535e-07H6.89542C5.34134 -0.000368862 3.83272 0.52438 2.61433 1.48911C1.39594 2.45384 0.539262 3.80195 0.18329 5.31471C-0.172683 6.82748 -0.00706688 8.41615 0.653268 9.82296C1.3136 11.2298 2.42991 12.3722 3.82109 13.0649C2.67333 13.636 1.70766 14.516 1.03264 15.6059C0.357611 16.6958 2.7736e-07 17.9524 9.51544e-06 19.2345C1.87535e-05 20.5165 0.357648 21.7731 1.03269 22.863C1.70773 23.9528 2.67342 24.8328 3.82118 25.404C2.72198 25.9518 1.78907 26.7833 1.11893 27.8125C0.448784 28.8417 0.065734 30.0313 0.00938893 31.2581C-0.0469561 32.485 0.225449 33.7046 0.798434 34.7909C1.37142 35.8772 2.22418 36.7908 3.26854 37.437C4.3129 38.0833 5.51094 38.4389 6.73878 38.467C7.96661 38.4951 9.17966 38.1947 10.2525 37.5968C11.3253 36.999 12.219 36.1254 12.841 35.0665C13.4631 34.0075 13.791 32.8016 13.7908 31.5735V23.4591C14.4255 24.2775 15.2364 24.9423 16.1633 25.4042C17.0902 25.8661 18.1093 26.1132 19.1448 26.1272C20.1803 26.1411 21.2057 25.9215 22.1446 25.4847C23.0836 25.0479 23.9121 24.4051 24.5685 23.6041C25.225 22.8031 25.6925 21.8644 25.9363 20.8579C26.1801 19.8514 26.1939 18.8029 25.9768 17.7903C25.7597 16.7777 25.3172 15.827 24.6822 15.0089C24.0472 14.1909 23.236 13.5264 22.3089 13.0649V13.0649ZM24.6783 6.89541C24.6767 8.33806 24.1031 9.72121 23.0833 10.7416C22.0636 11.7621 20.6808 12.3365 19.2381 12.3391L19.2346 12.339L19.2276 12.3392L13.7908 12.339V1.45167H19.2346C20.6778 1.4533 22.0615 2.02736 23.0821 3.04791C24.1026 4.06845 24.6767 5.45214 24.6783 6.89541V6.89541ZM15.0097 13.7907C14.5545 14.1449 14.145 14.5543 13.7908 15.0096V13.7907L15.0097 13.7907ZM1.45168 6.89541C1.45331 5.45214 2.02737 4.06845 3.04792 3.04791C4.06846 2.02736 5.45215 1.4533 6.89542 1.45167H12.3392V12.339H6.89542L6.89197 12.3391C5.44932 12.3365 4.06652 11.7621 3.04672 10.7416C2.02692 9.72122 1.45333 8.33807 1.45168 6.89541V6.89541ZM6.89542 37.0171C6.18018 37.0177 5.47183 36.8773 4.81086 36.604C4.14989 36.3307 3.54926 35.9298 3.0433 35.4243C2.53734 34.9187 2.13597 34.3184 1.86212 33.6577C1.58827 32.9969 1.44732 32.2887 1.44732 31.5734C1.44732 30.8582 1.58827 30.15 1.86212 29.4892C2.13597 28.8285 2.53734 28.2282 3.0433 27.7226C3.54926 27.2171 4.14989 26.8162 4.81086 26.5429C5.47183 26.2696 6.18018 26.1292 6.89542 26.1298L12.3392 26.1296V31.5735C12.3375 33.0167 11.7635 34.4004 10.7429 35.4209C9.72237 36.4414 8.33868 37.0155 6.89542 37.0171V37.0171ZM12.3392 24.6779L6.89542 24.6781C5.45212 24.6779 4.06798 24.1045 3.04734 23.084C2.02669 22.0635 1.45308 20.6795 1.45262 19.2362C1.45217 17.7928 2.0249 16.4084 3.0449 15.3873C4.0649 14.3662 5.44867 13.7919 6.89197 13.7907L6.89542 13.7908L12.3392 13.7907V24.6779ZM19.2346 24.6781C17.7917 24.6777 16.4081 24.1044 15.3877 23.0843C14.3673 22.0643 13.7936 20.6808 13.7926 19.238C13.7917 17.7951 14.3636 16.4109 15.3827 15.3895C16.4018 14.3682 17.7847 13.7931 19.2276 13.7908H19.2346L19.238 13.7907C20.6809 13.7926 22.064 14.3671 23.0835 15.3882C24.1029 16.4093 24.6753 17.7933 24.6748 19.2362C24.6744 20.679 24.1011 22.0627 23.081 23.0831C22.0609 24.1035 20.6774 24.6772 19.2346 24.6781V24.6781Z" fill="#151515"/>
</svg>
