<svg width="90" height="24" viewBox="0 0 90 24" fill="none" xmlns="http://www.w3.org/2000/svg">
<path d="M52.8218 10.0762H55.1731V18.4739H52.8218V17.3822C51.982 18.6419 50.8903 18.7259 50.2185 18.7259C47.6152 18.7259 45.9356 16.7104 45.9356 14.2751C45.9356 11.7557 47.6152 9.82425 50.0505 9.82425C50.7223 9.82425 51.982 9.90823 52.7378 11.1679V10.0762H52.8218ZM48.4549 14.2751C48.4549 15.6187 49.3787 16.6264 50.8063 16.6264C52.1499 16.6264 53.1577 15.6187 53.1577 14.2751C53.1577 12.9314 52.2339 11.9237 50.8063 11.9237C49.4627 11.9237 48.4549 12.9314 48.4549 14.2751ZM59.7919 12.0916V18.4739H57.4405V12.0916H56.5168V10.0762H57.4405V7.22095H59.7919V10.0762H61.3874V12.0916H59.7919ZM66.93 12.0916C66.3421 11.5878 65.8383 11.5038 65.5863 11.5038C64.9985 11.5038 64.6626 11.7557 64.6626 12.1756C64.6626 12.4276 64.7465 12.6795 65.4184 12.9314L66.0062 13.0994C66.678 13.3513 67.6858 13.6032 68.1056 14.2751C68.3576 14.611 68.5255 15.1148 68.5255 15.7027C68.5255 16.4585 68.2736 17.2143 67.6018 17.8021C66.93 18.3899 66.0902 18.7259 65.0825 18.7259C63.3189 18.7259 62.3952 17.8861 61.8073 17.2982L63.067 15.8706C63.5709 16.3745 64.2427 16.8784 64.9145 16.8784C65.5863 16.8784 66.0902 16.5424 66.0902 15.9546C66.0902 15.4507 65.6703 15.1988 65.3344 15.1148L64.8305 14.9469C64.2427 14.6949 63.5709 14.443 63.067 13.9391C62.6471 13.5193 62.3952 13.0154 62.3952 12.3436C62.3952 11.5038 62.8151 10.832 63.235 10.4121C63.9068 9.90823 64.7465 9.82425 65.4184 9.82425C66.0062 9.82425 67.0139 9.90823 68.1056 10.748L66.93 12.0916V12.0916ZM72.0526 11.1679C72.8924 9.99221 74.068 9.82425 74.7399 9.82425C77.1752 9.82425 78.8548 11.7557 78.8548 14.2751C78.8548 16.7944 77.1752 18.7259 74.6559 18.7259C74.152 18.7259 72.8924 18.6419 71.9686 17.3822V18.4739H69.7012V4.36572H72.0526V11.1679V11.1679ZM71.8007 14.2751C71.8007 15.6187 72.7244 16.6264 74.152 16.6264C75.4957 16.6264 76.5034 15.6187 76.5034 14.2751C76.5034 12.9314 75.5796 11.9237 74.152 11.9237C72.7244 11.9237 71.8007 12.9314 71.8007 14.2751ZM82.7177 17.2143L78.6868 10.0762H81.4581L84.0614 14.8629L86.4127 10.0762H89.1L82.3818 22.9247H79.6945L82.7177 17.2143ZM45.3478 11.5038H39.4693V13.8552H42.5765C42.0726 15.4507 40.897 16.5424 38.7135 16.5424C36.2782 16.5424 34.5147 14.527 34.5147 12.0916C34.5147 9.6563 36.1942 7.55686 38.6296 7.55686C39.9732 7.55686 41.3168 8.22868 42.1566 9.32039L44.0881 8.06073C42.8284 6.2972 40.813 5.28947 38.6296 5.28947C34.9346 5.28947 31.9114 8.31266 31.9114 12.0916C31.9114 15.8706 34.7666 18.8938 38.6296 18.8938C42.4925 18.8938 45.3478 15.8706 45.3478 12.0916C45.4317 11.8397 45.3478 11.6718 45.3478 11.5038V11.5038Z" fill="#151515"/>
<path d="M11.7568 0C5.29058 0 0 5.29058 0 11.7568C0 18.2231 5.29058 23.5137 11.7568 23.5137C18.2231 23.5137 23.5137 18.2231 23.5137 11.7568C23.5137 5.29058 18.2231 0 11.7568 0ZM5.2066 18.3071C3.44307 16.5436 2.51932 14.1922 2.51932 11.9248L11.6729 20.9944C9.32149 20.9104 6.97013 20.0706 5.2066 18.3071ZM13.7723 20.7424L2.77125 9.74138C3.69501 5.62649 7.39001 2.51932 11.7568 2.51932C14.864 2.51932 17.5513 4.03092 19.2308 6.29831L17.9712 7.39001C16.5436 5.45853 14.2762 4.19887 11.7568 4.19887C8.48172 4.19887 5.71046 6.29831 4.61876 9.23752L14.2762 18.8949C16.7115 18.0551 18.559 15.9557 19.1469 13.4364H15.1159V11.7568H20.9944C20.9944 16.1237 17.8872 19.8187 13.7723 20.7424Z" fill="#151515"/>
</svg>
