<svg width="76" height="32" viewBox="0 0 76 32" fill="none" xmlns="http://www.w3.org/2000/svg">
<path d="M45.4172 11.0478C43.7556 11.0478 42.5182 11.8636 42.5182 13.8272C42.5182 15.3065 43.3337 16.3337 45.3275 16.3337C47.0176 16.3337 48.1657 15.3377 48.1657 13.7657C48.1657 11.9845 47.1385 11.0478 45.4172 11.0478V11.0478ZM42.0951 24.9122C41.7018 25.3946 41.3099 25.9076 41.3099 26.5123C41.3099 27.7197 42.8495 28.0831 44.9644 28.0831C46.716 28.0831 49.1023 27.9602 49.1023 26.3315C49.1023 25.3634 47.9543 25.3038 46.5037 25.2129L42.0951 24.9122V24.9122ZM51.035 11.139C51.5777 11.8336 52.1524 12.8006 52.1524 14.1896C52.1524 17.542 49.5248 19.5049 45.72 19.5049C44.7525 19.5049 43.8767 19.3844 43.3337 19.2336L42.3365 20.8337L45.2961 21.0148C50.5217 21.3479 53.6012 21.4993 53.6012 25.5145C53.6012 28.9886 50.5516 30.9506 45.2961 30.9506C39.8297 30.9506 37.7456 29.5612 37.7456 27.1756C37.7456 25.8165 38.3497 25.093 39.4069 24.0946C38.41 23.6733 38.0781 22.9187 38.0781 22.1026C38.0781 21.4376 38.41 20.834 38.9545 20.2596C39.4978 19.6866 40.1016 19.1121 40.8266 18.4477C39.347 17.7228 38.2289 16.1523 38.2289 13.9168C38.2289 10.4443 40.5247 8.05918 45.1446 8.05918C46.4438 8.05918 47.2293 8.17852 47.924 8.3611H53.814V10.9273L51.035 11.139V11.139ZM59.1275 5.65063C57.4056 5.65063 56.409 4.65313 56.409 2.93096C56.409 1.21116 57.4053 0.273926 59.1275 0.273926C60.8791 0.273926 61.876 1.21116 61.876 2.93096C61.876 4.65313 60.8794 5.65063 59.1275 5.65063ZM55.2307 23.8007V21.4159L56.7715 21.2051C57.1945 21.1442 57.2545 21.054 57.2545 20.6001V11.7205C57.2545 11.3892 57.1643 11.1767 56.8612 11.087L55.2307 10.5126L55.5626 8.0669H61.8151V20.6001C61.8151 21.084 61.8442 21.1442 62.2987 21.2054L63.8389 21.4162V23.8007H55.2307V23.8007ZM75.7825 22.6298C74.4834 23.2636 72.5807 23.8375 70.8586 23.8375C67.2646 23.8375 65.9061 22.3893 65.9061 18.9747V11.0627C65.9061 10.8816 65.9061 10.7607 65.6635 10.7607H63.5498V8.07194C66.2083 7.76913 67.2646 6.44032 67.5968 3.14827H70.4664V7.43811C70.4664 7.6489 70.4664 7.74004 70.7083 7.74004H74.9664V10.7601H70.4664V17.9781C70.4664 19.7599 70.8897 20.454 72.5199 20.454C73.3666 20.454 74.2415 20.2432 74.9661 19.9713L75.7825 22.6295" fill="#101F30"/>
<path d="M31.0321 14.7043L17.2226 0.89579C17.0335 0.706611 16.809 0.556543 16.5618 0.454156C16.3147 0.35177 16.0498 0.299072 15.7823 0.299072C15.5148 0.299072 15.25 0.35177 15.0028 0.454156C14.7557 0.556543 14.5312 0.706611 14.3421 0.89579L11.4745 3.7636L15.1121 7.40092C15.5397 7.2555 15.9995 7.23274 16.4393 7.33522C16.8792 7.43769 17.2816 7.6613 17.6008 7.98071C17.9219 8.30214 18.146 8.70738 18.2476 9.15014C18.3492 9.5929 18.3243 10.0553 18.1756 10.4846L21.6808 13.9904C22.529 13.6982 23.5078 13.8873 24.1849 14.5657C24.4101 14.7907 24.5887 15.0579 24.7105 15.3519C24.8324 15.6459 24.8951 15.9611 24.8951 16.2794C24.8951 16.5977 24.8324 16.9129 24.7105 17.2069C24.5887 17.501 24.4101 17.7681 24.1849 17.9931C23.7888 18.3896 23.2676 18.6365 22.7099 18.6919C22.1522 18.7473 21.5925 18.6077 21.1262 18.2969C20.6598 17.9861 20.3156 17.5233 20.1521 16.9873C19.9886 16.4512 20.0159 15.8751 20.2294 15.3569L16.9602 12.0877L16.9599 20.6911C17.1969 20.8083 17.4133 20.9631 17.6008 21.1495C17.826 21.3746 18.0045 21.6418 18.1264 21.9359C18.2482 22.23 18.3109 22.5452 18.3109 22.8635C18.3109 23.1818 18.2482 23.4971 18.1264 23.7911C18.0045 24.0852 17.826 24.3524 17.6008 24.5775C16.6538 25.5245 15.119 25.5245 14.1734 24.5775C13.8909 24.2952 13.6826 23.9475 13.5669 23.5653C13.4512 23.1831 13.4317 22.7782 13.5102 22.3867C13.5887 21.9951 13.7627 21.629 14.0168 21.3209C14.2709 21.0129 14.5972 20.7723 14.9667 20.6208V11.9372C14.6695 11.8158 14.3997 11.6359 14.1734 11.4081C13.4562 10.6918 13.2837 9.63935 13.6512 8.75853L10.0656 5.17228L0.597038 14.6402C0.407832 14.8294 0.257744 15.054 0.155346 15.3012C0.0529479 15.5484 0.000244141 15.8134 0.000244141 16.081C0.000244141 16.3485 0.0529479 16.6135 0.155346 16.8607C0.257744 17.1079 0.407832 17.3325 0.597038 17.5217L14.4065 31.3305C14.7885 31.7125 15.3066 31.927 15.8468 31.927C16.387 31.927 16.905 31.7125 17.2871 31.3305L31.0321 17.5861C31.4141 17.2039 31.6286 16.6856 31.6286 16.1452C31.6286 15.6048 31.4141 15.0866 31.0321 14.7043" fill="#101F30"/>
</svg>
