<svg width="140" height="32" viewBox="0 0 140 32" fill="none" xmlns="http://www.w3.org/2000/svg">
<g clip-path="url(#clip0_1_4)">
<path d="M14.963 4.24242L11.2594 6.36363L7.55577 8.48485L3.85214 10.6061V23.3333L7.55577 21.2121L11.2594 19.0909V14.8485L7.55577 16.9697V12.7273L11.2594 10.6061L14.963 8.48485V21.2121L11.2594 23.3333L7.55577 25.4545L3.85214 27.5757L0.148499 29.697L3.85214 31.8182L7.55577 29.697L11.2594 27.5757L14.963 25.4545L18.6667 23.3333V2.12121L14.963 0V4.24242ZM37.5243 8.87091H40.7273V21.6236C40.7273 23.6939 40.0782 25.2721 38.7843 26.3624C37.4723 27.4594 35.806 28.0414 34.0964 28C32.8491 28.0297 31.6103 27.7454 30.4861 27.1727C29.454 26.6271 28.6165 25.7748 28.0891 24.7333L30.8721 23.0364C31.517 24.2921 32.6243 24.92 34.1982 24.92C35.2334 24.92 36.0437 24.6358 36.6376 24.063C37.2315 23.4903 37.5285 22.6757 37.5285 21.6194V20.1685C36.5612 21.5261 35.2079 22.2048 33.4643 22.2048C31.763 22.2473 30.1255 21.5176 28.9673 20.2109C27.7561 18.881 27.1055 17.1346 27.1515 15.3364C27.1134 13.5468 27.7668 11.8115 28.9758 10.4915C29.5324 9.85003 30.2226 9.33803 30.9979 8.99139C31.7733 8.64476 32.615 8.47187 33.4643 8.48485C35.2037 8.48485 36.5612 9.16363 37.5243 10.5212V8.87091V8.87091ZM31.4152 17.9794C32.1003 18.6419 33.0161 19.0123 33.9691 19.0123C34.9222 19.0123 35.8379 18.6419 36.523 17.9794C36.8576 17.6286 37.1185 17.2144 37.2905 16.7612C37.4624 16.308 37.5419 15.825 37.5243 15.3406C37.541 14.8605 37.4614 14.3819 37.2902 13.9331C37.1189 13.4842 36.8595 13.0742 36.5273 12.7273C35.8424 12.066 34.9275 11.6964 33.9755 11.6964C33.0234 11.6964 32.1086 12.066 31.4237 12.7273C31.0899 13.0735 30.8289 13.4832 30.6562 13.9321C30.4835 14.381 30.4026 14.8599 30.4182 15.3406C30.4011 15.8253 30.4812 16.3085 30.6539 16.7617C30.8266 17.2149 31.0883 17.629 31.4237 17.9794H31.4152ZM46.1576 10.9582C46.4294 10.1779 46.9711 9.52042 47.6849 9.10424C48.4061 8.68848 49.2291 8.47636 50.0606 8.48485V12.1885C49.111 12.0556 48.1458 12.2776 47.3497 12.8121C46.5521 13.3424 46.1534 14.2291 46.1534 15.4679V21.6364H42.8485V8.75212H46.1576V10.9582ZM61.2182 8.85394H64.4849V21.6915H61.2182V20.1812C60.234 21.4327 58.8552 22.0606 57.0733 22.0606C56.2498 22.0659 55.4348 21.8931 54.6843 21.5541C53.9337 21.215 53.2653 20.7178 52.7249 20.0964C51.516 18.7857 50.8661 17.0551 50.9134 15.2727C50.8667 13.4909 51.5158 11.7515 52.7249 10.4491C53.2653 9.82767 53.9337 9.33042 54.6843 8.99139C55.4348 8.65236 56.2498 8.47957 57.0733 8.48485C58.8552 8.48485 60.234 9.11272 61.2182 10.3642V8.85394ZM55.1685 17.8861C55.4941 18.2212 55.886 18.4848 56.3192 18.6601C56.7523 18.8354 57.2172 18.9185 57.6843 18.9042C58.6303 18.9297 59.5467 18.5648 60.2127 17.8861C60.5481 17.5409 60.8101 17.1314 60.9829 16.6823C61.1557 16.2331 61.2357 15.7536 61.2182 15.2727C61.2357 14.7918 61.1557 14.3123 60.9829 13.8632C60.8101 13.414 60.5481 13.0045 60.2127 12.6594C59.8841 12.3248 59.4899 12.0616 59.0548 11.8864C58.6197 11.7112 58.1531 11.6277 57.6843 11.6412C57.2172 11.6269 56.7523 11.7101 56.3192 11.8854C55.886 12.0607 55.4941 12.3243 55.1685 12.6594C54.8364 13.0063 54.5774 13.4164 54.4069 13.8653C54.2364 14.3142 54.1578 14.7928 54.1758 15.2727C54.1578 15.7526 54.2364 16.2312 54.4069 16.6801C54.5774 17.1291 54.8364 17.5392 55.1685 17.8861ZM73.9879 8.48485C75.6594 8.46788 77.2546 9.19757 78.3661 10.4873C79.5778 11.8301 80.2265 13.5877 80.1776 15.3958C80.2276 17.2053 79.5789 18.9646 78.3661 20.3085C77.8268 20.9403 77.1558 21.4465 76.4002 21.7916C75.6447 22.1368 74.8228 22.3126 73.9921 22.3067C72.2103 22.3067 70.84 21.6703 69.8727 20.3976V27.1515H66.6061V8.86242H69.8727V10.3982C70.84 9.12545 72.2103 8.48909 73.9879 8.48909V8.48485ZM70.8655 18.0558C71.1883 18.3956 71.5793 18.6635 72.0128 18.8419C72.4464 19.0203 72.9127 19.1051 73.3812 19.0909C73.8516 19.1043 74.3195 19.0191 74.755 18.8408C75.1904 18.6625 75.5838 18.3951 75.9097 18.0558C76.246 17.7017 76.5082 17.284 76.6809 16.8272C76.8536 16.3704 76.9332 15.8838 76.9152 15.3958C76.9332 14.9078 76.8536 14.4211 76.6809 13.9643C76.5082 13.5075 76.246 13.0898 75.9097 12.7358C75.5838 12.3964 75.1904 12.129 74.755 11.9507C74.3195 11.7724 73.8516 11.6872 73.3812 11.7006C72.9127 11.6866 72.4465 11.7716 72.013 11.95C71.5795 12.1283 71.1885 12.3961 70.8655 12.7358C70.5326 13.0916 70.2735 13.5099 70.1031 13.9665C69.9327 14.423 69.8544 14.9088 69.8727 15.3958C69.8544 15.8827 69.9327 16.3685 70.1031 16.825C70.2735 17.2816 70.5326 17.6999 70.8655 18.0558V18.0558ZM89.6297 8.33636C90.9703 8.29394 92.2643 8.82848 93.1934 9.80424C94.1352 10.7842 94.6061 12.1376 94.6061 13.8642V22.0606H91.2121V14.2842C91.2121 13.3933 90.9746 12.7145 90.4994 12.2436C90.2469 12.0032 89.9483 11.8165 89.6217 11.6947C89.295 11.573 88.947 11.5187 88.5988 11.5351C88.2083 11.5172 87.8184 11.5816 87.4545 11.7241C87.0905 11.8666 86.7605 12.0841 86.4861 12.3624C85.96 12.9139 85.6927 13.7412 85.6927 14.8485V22.0606H82.303V3.39394H85.697V10.203C86.5243 8.96 87.8352 8.33636 89.6297 8.33636ZM103.409 22.0606C101.517 22.103 99.6885 21.3988 98.3479 20.1176C97.6896 19.4961 97.1678 18.7444 96.8158 17.9103C96.4637 17.0762 96.2891 16.178 96.3031 15.2727C96.3219 14.0609 96.6647 12.8762 97.2958 11.8415C97.9269 10.8068 98.8233 9.95987 99.8921 9.38848C100.983 8.79396 102.205 8.48386 103.447 8.48683C104.689 8.48979 105.911 8.80573 106.998 9.40545C108.011 9.96706 108.823 10.832 109.319 11.8788L107.864 12.6806C107.496 11.8935 106.886 11.2442 106.124 10.8267C105.296 10.3613 104.359 10.1241 103.409 10.1394C102.712 10.1234 102.019 10.2473 101.37 10.5038C100.722 10.7602 100.131 11.1441 99.6334 11.6327C99.1369 12.0985 98.7435 12.6629 98.4783 13.2898C98.213 13.9167 98.0819 14.5921 98.0934 15.2727C98.0819 15.9533 98.213 16.6288 98.4783 17.2557C98.7435 17.8825 99.1369 18.447 99.6334 18.9127C100.783 20.0582 102.433 20.6097 104.075 20.3976C105.721 20.1939 107.164 19.2521 107.97 17.8648L109.455 18.6921C108.892 19.7332 108.038 20.5881 106.998 21.1527C105.901 21.7619 104.664 22.0748 103.409 22.0606V22.0606ZM124.545 8.48485C125.86 8.43394 127.137 8.93879 128.058 9.87636C128.949 10.8012 129.394 12.0485 129.394 13.6224V21.6364H127.676V13.6224C127.676 12.5109 127.387 11.6497 126.806 11.043C126.51 10.738 126.153 10.499 125.758 10.3418C125.363 10.1846 124.94 10.1127 124.515 10.1309C124.031 10.1124 123.548 10.1978 123.099 10.3815C122.651 10.5652 122.247 10.8428 121.915 11.1958C121.253 11.9085 120.922 13.0158 120.922 14.5218V21.6364H119.199V13.6224C119.199 12.4939 118.928 11.6285 118.385 11.0303C118.104 10.7289 117.761 10.4923 117.379 10.337C116.997 10.1817 116.586 10.1114 116.175 10.1309C115.684 10.1212 115.196 10.2118 114.742 10.3971C114.287 10.5824 113.876 10.8585 113.532 11.2085C112.81 11.9297 112.445 13.0327 112.445 14.5176V21.6364H110.727V8.79454H112.445V10.6697C112.85 9.98323 113.432 9.41819 114.129 9.03379C114.827 8.6494 115.616 8.45979 116.412 8.48485C118.279 8.48485 119.594 9.26121 120.353 10.8182C121.287 9.26121 122.682 8.48485 124.549 8.48485H124.545ZM132.067 12.1545C132.065 12.437 132.141 12.7146 132.285 12.9575C132.429 13.2003 132.637 13.3994 132.885 13.5333C133.501 13.9067 134.175 14.1867 134.879 14.3648L137.217 15.0012C137.976 15.2048 138.659 15.6036 139.194 16.1551C139.467 16.4466 139.679 16.7896 139.817 17.1641C139.956 17.5385 140.018 17.9369 140 18.3358C140.007 18.863 139.885 19.3839 139.643 19.8528C139.402 20.3218 139.05 20.7244 138.617 21.0254C137.701 21.717 136.517 22.0606 135.062 22.0564C133.891 22.0903 132.737 21.8018 131.732 21.2248C130.875 20.7369 130.203 19.9812 129.818 19.0739L131.345 18.2254C131.601 18.9003 132.086 19.4635 132.716 19.8164C133.424 20.2194 134.243 20.423 135.066 20.4018C135.842 20.4315 136.61 20.2576 137.293 19.9012C137.576 19.7528 137.811 19.5265 137.969 19.2492C138.128 18.9718 138.204 18.6549 138.189 18.3358C138.201 17.7673 137.892 17.2327 137.382 16.94C136.766 16.5636 136.097 16.2819 135.397 16.1042L133.055 15.4679C132.3 15.2642 131.613 14.8739 131.07 14.3267C130.795 14.0439 130.581 13.708 130.441 13.3395C130.301 12.9711 130.238 12.578 130.255 12.1842C130.253 11.6709 130.373 11.1645 130.603 10.7059C130.834 10.2474 131.17 9.84982 131.583 9.54545C132.537 8.81424 133.716 8.43911 134.918 8.48485C135.936 8.46788 136.945 8.71394 137.828 9.20606C138.627 9.64381 139.273 10.316 139.678 11.1321L138.172 11.9594C137.65 10.7503 136.559 10.1436 134.918 10.1436C134.211 10.1238 133.514 10.3048 132.907 10.6655C132.644 10.8138 132.427 11.0307 132.278 11.293C132.13 11.5553 132.055 11.8531 132.062 12.1545H132.067Z" fill="#F2F2F2" fill-opacity="0.5"/>
</g>
<defs>
<clipPath id="clip0_1_4">
<rect width="140" height="31.8182" fill="white"/>
</clipPath>
</defs>
</svg>
