<svg width="105" height="29" viewBox="0 0 105 29" fill="none" xmlns="http://www.w3.org/2000/svg">
<g clip-path="url(#clip0_16:83)">
<path fill-rule="evenodd" clip-rule="evenodd" d="M14.3052 1.9751L24.9834 8.14018V20.4704L14.3052 26.6354L3.62695 20.4704V8.14018L14.3052 1.9751ZM4.82507 8.83192V17.8888L12.6685 4.3035L4.82507 8.83192ZM14.3052 3.86496L5.26361 19.5254H23.3468L14.3052 3.86496ZM22.1487 20.7236H6.46172L14.3052 25.252L22.1487 20.7236ZM23.7853 17.8888L15.9419 4.3035L23.7853 8.83192V17.8888Z" fill="#101F30"/>
<path d="M14.3052 5.19018C15.6988 5.19018 16.8286 4.0604 16.8286 2.66674C16.8286 1.27309 15.6988 0.143311 14.3052 0.143311C12.9115 0.143311 11.7817 1.27309 11.7817 2.66674C11.7817 4.0604 12.9115 5.19018 14.3052 5.19018Z" fill="#101F30"/>
<path d="M24.3844 11.0093C25.7781 11.0093 26.9078 9.87949 26.9078 8.48584C26.9078 7.09218 25.7781 5.9624 24.3844 5.9624C22.9907 5.9624 21.861 7.09218 21.861 8.48584C21.861 9.87949 22.9907 11.0093 24.3844 11.0093Z" fill="#101F30"/>
<path d="M24.3844 22.6477C25.7781 22.6477 26.9078 21.5179 26.9078 20.1243C26.9078 18.7306 25.7781 17.6008 24.3844 17.6008C22.9907 17.6008 21.861 18.7306 21.861 20.1243C21.861 21.5179 22.9907 22.6477 24.3844 22.6477Z" fill="#101F30"/>
<path d="M14.3052 28.4671C15.6988 28.4671 16.8286 27.3373 16.8286 25.9436C16.8286 24.55 15.6988 23.4202 14.3052 23.4202C12.9115 23.4202 11.7817 24.55 11.7817 25.9436C11.7817 27.3373 12.9115 28.4671 14.3052 28.4671Z" fill="#101F30"/>
<path d="M4.2246 22.6477C5.61826 22.6477 6.74804 21.5179 6.74804 20.1243C6.74804 18.7306 5.61826 17.6008 4.2246 17.6008C2.83095 17.6008 1.70117 18.7306 1.70117 20.1243C1.70117 21.5179 2.83095 22.6477 4.2246 22.6477Z" fill="#101F30"/>
<path d="M4.2246 11.0093C5.61826 11.0093 6.74804 9.87949 6.74804 8.48584C6.74804 7.09218 5.61826 5.9624 4.2246 5.9624C2.83095 5.9624 1.70117 7.09218 1.70117 8.48584C1.70117 9.87949 2.83095 11.0093 4.2246 11.0093Z" fill="#101F30"/>
<path d="M39.7327 20.4921C38.2426 20.4921 37.0862 20.0629 36.2637 19.2046C35.4411 18.3463 35.0059 17.196 34.9585 15.7535C34.9464 15.3959 34.9404 14.8296 34.9404 14.0548C34.9404 13.2799 34.9464 12.7137 34.9585 12.356C35.0059 10.9136 35.4411 9.76321 36.2637 8.9049C37.0862 8.04659 38.2426 7.61743 39.7327 7.61743C40.7461 7.61743 41.5984 7.80818 42.2899 8.18964C42.9811 8.5711 43.4938 9.02412 43.8277 9.54863C44.1733 10.0612 44.3581 10.5202 44.3819 10.9255V10.9613C44.3819 11.0566 44.3461 11.1341 44.2746 11.1937C44.203 11.2533 44.1138 11.2831 44.0062 11.2831H43.6131C43.5058 11.2831 43.4283 11.2593 43.3805 11.2116C43.3327 11.1639 43.2852 11.0686 43.2374 10.9255C43.0349 10.2937 42.6415 9.76321 42.0573 9.33405C41.4851 8.9049 40.7103 8.69032 39.7327 8.69032C38.624 8.69032 37.748 8.99431 37.1042 9.60228C36.4722 10.2102 36.1326 11.158 36.0848 12.4454C36.0728 12.8031 36.0671 13.3395 36.0671 14.0548C36.0671 14.77 36.0728 15.3065 36.0848 15.6641C36.1326 16.9516 36.4722 17.8993 37.1042 18.5073C37.748 19.1152 38.624 19.4192 39.7327 19.4192C40.8413 19.4192 41.7354 19.1033 42.4149 18.4715C43.0944 17.8397 43.434 16.9039 43.434 15.6641V14.7521H40.3229C40.2036 14.7521 40.1083 14.7164 40.0368 14.6449C39.9653 14.5614 39.9295 14.4601 39.9295 14.3409V14.0905C39.9295 13.9713 39.9653 13.8759 40.0368 13.8044C40.1083 13.721 40.2036 13.6793 40.3229 13.6793H44.1493C44.2806 13.6793 44.3819 13.715 44.4534 13.7865C44.5249 13.8581 44.5607 13.9594 44.5607 14.0905V15.6641C44.5607 16.6178 44.3698 17.4582 43.9885 18.1854C43.6071 18.9126 43.0526 19.4788 42.3256 19.8841C41.5984 20.2894 40.734 20.4921 39.7327 20.4921Z" fill="#101F30"/>
<path d="M47.4763 20.3133C47.3573 20.3133 47.2617 20.2775 47.1902 20.206C47.1186 20.1344 47.0829 20.0391 47.0829 19.9199V11.4262C47.0829 11.3069 47.1186 11.2116 47.1902 11.1401C47.2617 11.0566 47.3573 11.0149 47.4763 11.0149H47.7624C47.8817 11.0149 47.977 11.0566 48.0485 11.1401C48.132 11.2116 48.1738 11.3069 48.1738 11.4262V12.2487C48.6029 11.4262 49.4135 11.0149 50.6057 11.0149H51.2671C51.3864 11.0149 51.4817 11.0507 51.5532 11.1222C51.6247 11.1937 51.6605 11.2891 51.6605 11.4083V11.6586C51.6605 11.7778 51.6247 11.8732 51.5532 11.9447C51.4817 12.0163 51.3864 12.052 51.2671 12.052H50.4984C49.7831 12.052 49.2169 12.2606 48.7995 12.6779C48.3824 13.0951 48.1738 13.6614 48.1738 14.3766V19.9199C48.1738 20.0391 48.132 20.1344 48.0485 20.206C47.977 20.2775 47.8817 20.3133 47.7624 20.3133H47.4763Z" fill="#101F30"/>
<path d="M55.6634 20.4922C55.0912 20.4922 54.5605 20.373 54.0719 20.1346C53.5832 19.8961 53.1898 19.5743 52.8917 19.169C52.6056 18.7636 52.4625 18.3166 52.4625 17.8278C52.4625 17.0411 52.7784 16.3973 53.4104 15.8966C54.0541 15.396 54.9181 15.0741 56.003 14.931L58.8283 14.5376V13.9118C58.8283 13.2561 58.6258 12.7555 58.2203 12.4098C57.827 12.0521 57.219 11.8733 56.3964 11.8733C55.7885 11.8733 55.2878 11.9925 54.8944 12.2309C54.513 12.4693 54.2687 12.7555 54.1614 13.0892C54.1136 13.2323 54.0541 13.3336 53.9826 13.3932C53.9228 13.4409 53.8395 13.4648 53.7323 13.4648H53.4819C53.3746 13.4648 53.2791 13.429 53.1958 13.3575C53.1243 13.274 53.0885 13.1787 53.0885 13.0714C53.0885 12.8091 53.2075 12.5051 53.4461 12.1594C53.6845 11.8018 54.0541 11.4918 54.5548 11.2296C55.0555 10.9673 55.6692 10.8362 56.3964 10.8362C57.6719 10.8362 58.578 11.1402 59.1144 11.7481C59.6509 12.3561 59.9192 13.0952 59.9192 13.9654V19.92C59.9192 20.0392 59.8835 20.1346 59.8119 20.2061C59.7404 20.2776 59.6449 20.3134 59.5258 20.3134H59.2217C59.1024 20.3134 59.0071 20.2776 58.9356 20.2061C58.8641 20.1346 58.8283 20.0392 58.8283 19.92V19.0795C58.566 19.4729 58.1786 19.8067 57.6662 20.0809C57.1655 20.3551 56.4977 20.4922 55.6634 20.4922ZM55.8423 19.4551C56.7123 19.4551 57.4276 19.169 57.988 18.5967C58.5482 18.0245 58.8283 17.202 58.8283 16.1291V15.5211L56.5218 15.843C55.5441 15.9741 54.8051 16.2006 54.3045 16.5225C53.8038 16.8444 53.5534 17.2497 53.5534 17.7384C53.5534 18.2868 53.7797 18.71 54.2329 19.008C54.6978 19.3061 55.2343 19.4551 55.8423 19.4551Z" fill="#101F30"/>
<path d="M63.1579 23.7109C63.0389 23.7109 62.9433 23.6751 62.8718 23.6036C62.8003 23.532 62.7645 23.4367 62.7645 23.3175V11.4084C62.7645 11.2892 62.8003 11.1938 62.8718 11.1223C62.9433 11.0508 63.0389 11.015 63.1579 11.015H63.462C63.5814 11.015 63.6766 11.0508 63.7482 11.1223C63.8197 11.1938 63.8554 11.2892 63.8554 11.4084V12.2488C64.547 11.3071 65.5483 10.8362 66.8595 10.8362C68.147 10.8362 69.0946 11.2475 69.7025 12.07C70.3225 12.8806 70.6504 13.882 70.6862 15.0741C70.6982 15.1933 70.7039 15.39 70.7039 15.6642C70.7039 15.9384 70.6982 16.1351 70.6862 16.2543C70.6504 17.4464 70.3225 18.4537 69.7025 19.2762C69.0946 20.0869 68.147 20.4922 66.8595 20.4922C65.56 20.4922 64.5587 20.0213 63.8554 19.0795V23.3175C63.8554 23.4367 63.8197 23.532 63.7482 23.6036C63.6766 23.6751 63.5814 23.7109 63.462 23.7109H63.1579ZM66.7522 19.4551C67.7178 19.4551 68.4211 19.1511 68.8622 18.5431C69.3151 17.9232 69.5595 17.1305 69.5952 16.1649C69.6073 16.0456 69.6133 15.8788 69.6133 15.6642C69.6133 14.5555 69.3987 13.6495 68.9695 12.9462C68.5404 12.2309 67.8014 11.8733 66.7522 11.8733C65.8104 11.8733 65.1011 12.1892 64.6242 12.821C64.1475 13.4409 63.8912 14.1741 63.8554 15.0205L63.8374 15.7178L63.8554 16.4152C63.8675 16.9278 63.9805 17.4166 64.195 17.8815C64.4096 18.3345 64.7315 18.71 65.1606 19.008C65.5898 19.3061 66.1205 19.4551 66.7522 19.4551Z" fill="#101F30"/>
<path d="M73.5481 20.3133C73.429 20.3133 73.3335 20.2775 73.262 20.206C73.1904 20.1345 73.1547 20.0391 73.1547 19.9199V8.01082C73.1547 7.8916 73.1904 7.79625 73.262 7.72472C73.3335 7.65319 73.429 7.61743 73.5481 7.61743H73.8522C73.9715 7.61743 74.0668 7.65319 74.1383 7.72472C74.2098 7.79625 74.2456 7.8916 74.2456 8.01082V12.2487C74.6032 11.7838 75.0086 11.4321 75.4615 11.1937C75.9264 10.9553 76.5224 10.8361 77.2496 10.8361C78.4178 10.8361 79.3179 11.2116 79.9496 11.9626C80.5816 12.7017 80.8974 13.6614 80.8974 14.8416V19.9199C80.8974 20.0391 80.8617 20.1345 80.7901 20.206C80.7186 20.2775 80.6234 20.3133 80.504 20.3133H80.1999C80.0809 20.3133 79.9853 20.2775 79.9138 20.206C79.8423 20.1345 79.8065 20.0391 79.8065 19.9199V14.931C79.8065 13.9654 79.5682 13.2143 79.0913 12.6779C78.6264 12.1414 77.9529 11.8732 77.0708 11.8732C76.2125 11.8732 75.527 12.1474 75.0143 12.6958C74.5019 13.2322 74.2456 13.9773 74.2456 14.931V19.9199C74.2456 20.0391 74.2098 20.1345 74.1383 20.206C74.0668 20.2775 73.9715 20.3133 73.8522 20.3133H73.5481Z" fill="#101F30"/>
<path d="M92.0344 21.4756C91.8556 21.4756 91.6648 21.3385 91.4622 21.0643L90.6754 19.9735C89.9602 20.3192 89.1256 20.4921 88.172 20.4921C85.1084 20.4921 83.5349 18.847 83.4513 15.5568C83.4393 15.1992 83.4336 14.6985 83.4336 14.0548C83.4336 13.411 83.4393 12.9103 83.4513 12.5527C83.4991 10.9315 83.94 9.70361 84.7746 8.86913C85.6091 8.03466 86.7415 7.61743 88.172 7.61743C89.6025 7.61743 90.7349 8.03466 91.5695 8.86913C92.4041 9.70361 92.8449 10.9315 92.8927 12.5527C92.9165 13.268 92.9285 13.7687 92.9285 14.0548C92.9285 14.3409 92.9165 14.8415 92.8927 15.5568C92.8332 17.2615 92.3981 18.5132 91.5875 19.3119L92.7319 20.9212C92.7677 20.9928 92.7854 21.0583 92.7854 21.1179C92.7854 21.2133 92.7497 21.2968 92.6781 21.3683C92.6066 21.4398 92.5231 21.4756 92.4278 21.4756H92.0344ZM88.172 19.4192C89.2449 19.4192 90.0972 19.0973 90.7292 18.4536C91.3729 17.7979 91.7186 16.8026 91.7663 15.4674C91.7901 14.7521 91.8021 14.2813 91.8021 14.0548C91.8021 13.8283 91.7901 13.3574 91.7663 12.6421C91.7186 11.307 91.3729 10.3175 90.7292 9.6738C90.0855 9.01814 89.2329 8.69032 88.172 8.69032C87.1112 8.69032 86.2589 9.01814 85.6151 9.6738C84.9714 10.3175 84.6255 11.307 84.578 12.6421C84.566 12.9998 84.56 13.4706 84.56 14.0548C84.56 14.6389 84.566 15.1098 84.578 15.4674C84.6255 16.8026 84.9654 17.7979 85.5971 18.4536C86.2408 19.0973 87.0991 19.4192 88.172 19.4192Z" fill="#101F30"/>
<path d="M96.1668 20.3134C96.0478 20.3134 95.9523 20.2777 95.8807 20.2061C95.8092 20.1346 95.7734 20.0393 95.7734 19.92V8.18978C95.7734 8.07056 95.8092 7.9752 95.8807 7.90368C95.9523 7.83215 96.0478 7.79639 96.1668 7.79639H96.5067C96.626 7.79639 96.7213 7.83215 96.7928 7.90368C96.8643 7.9752 96.9001 8.07056 96.9001 8.18978V19.2405H103.069C103.2 19.2405 103.302 19.2763 103.373 19.3478C103.445 19.4194 103.48 19.5207 103.48 19.6518V19.92C103.48 20.0393 103.439 20.1346 103.355 20.2061C103.284 20.2777 103.188 20.3134 103.069 20.3134H96.1668Z" fill="#101F30"/>
</g>
<defs>
<clipPath id="clip0_16:83">
<rect width="105" height="28.6104" fill="white"/>
</clipPath>
</defs>
</svg>
