<svg width="418" height="412" viewBox="0 0 418 412" fill="none" xmlns="http://www.w3.org/2000/svg">
<ellipse cx="208.594" cy="201.506" rx="179.205" ry="181.213" fill="#F2F2F2"/>
<ellipse cx="208.594" cy="201.51" rx="172.037" ry="173.965" fill="#151515"/>
<circle r="54.0636" transform="matrix(0.703158 0.711034 -0.703158 0.711034 76.0305 334.205)" fill="#96E6FE"/>
<circle r="54.0636" transform="matrix(0.703158 0.711034 -0.703158 0.711034 341.969 76.8821)" fill="#96E6FE"/>
<circle r="54.0636" transform="matrix(0.703158 0.711034 -0.703158 0.711034 76.0305 76.8821)" fill="#96E6FE"/>
<g clip-path="url(#clip0_8:332)">
<path d="M76.0013 46.3877C65.4013 46.3877 50.8925 48.9272 50.8925 57.4515V96.2089C50.8925 104.738 66.4701 107.275 76.0013 107.275C85.4924 107.275 101.07 104.736 101.07 96.2115V57.4515C101.07 48.9247 86.1046 46.3877 76.0013 46.3877V46.3877ZM76.0013 51.4617C85.1286 51.4617 96.0523 53.7678 96.0523 57.4515C96.0523 61.4624 83.247 63.4413 76.0013 63.4413C67.441 63.4438 55.9102 61.1453 55.9102 57.4515C55.9102 53.4329 67.9829 51.4617 76.0013 51.4617V51.4617ZM96.0523 95.5696C96.0523 100.012 83.247 102.201 76.0013 102.201C67.441 102.201 55.9102 99.6592 55.9102 95.5696V90.3942C61.2215 93.7988 68.8811 94.91 76.0013 94.91C83.0989 94.91 90.7435 93.7988 96.0523 90.3942V95.5696ZM96.0523 83.2069C96.0523 87.6466 83.247 89.8386 76.0013 89.8386C67.441 89.836 55.9102 87.2965 55.9102 83.2069V77.2095C61.219 80.6116 68.8811 81.7253 76.0013 81.7253C83.124 81.7253 90.756 80.604 96.0523 77.2095V83.2069ZM76.0013 76.6488C67.4059 76.6488 55.9102 74.0966 55.9102 70.0171V64.002C61.2215 67.4066 68.8811 68.5178 76.0013 68.5178C83.0989 68.5178 90.7435 67.4066 96.0523 64.002V70.0197C96.0523 74.467 83.1792 76.6488 76.0013 76.6488V76.6488Z" fill="#151515"/>
</g>
<circle r="54.0636" transform="matrix(0.703158 0.711034 -0.703158 0.711034 341.969 334.205)" fill="#96E6FE"/>
<path d="M181.648 146.421C151.398 146.421 126.876 171.085 126.876 201.509C126.876 231.934 151.398 256.598 181.648 256.598C211.898 256.598 236.42 231.934 236.42 201.509C236.42 171.085 211.898 146.421 181.648 146.421Z" fill="#F2F2F2"/>
<path d="M236.551 146.421C206.463 146.421 182.072 171.085 182.072 201.509C182.072 231.934 206.463 256.598 236.551 256.598C266.639 256.598 291.029 231.934 291.029 201.509C291.029 171.085 266.639 146.421 236.551 146.421Z" fill="#2A3CE0"/>
<path fill-rule="evenodd" clip-rule="evenodd" d="M208.951 249.274C192.536 239.761 181.485 221.933 181.485 201.51C181.485 181.086 192.536 163.258 208.951 153.745C225.368 163.257 236.419 181.085 236.419 201.51C236.419 221.894 225.411 239.692 209.048 249.22L208.951 249.274Z" fill="#96E6FE"/>
<g clip-path="url(#clip1_8:332)">
<path d="M76.0013 303.712C65.4013 303.712 50.8925 306.251 50.8925 314.775V353.533C50.8925 362.062 66.4701 364.599 76.0013 364.599C85.4924 364.599 101.07 362.06 101.07 353.535V314.775C101.07 306.249 86.1046 303.712 76.0013 303.712V303.712ZM76.0013 308.786C85.1286 308.786 96.0523 311.092 96.0523 314.775C96.0523 318.786 83.247 320.765 76.0013 320.765C67.441 320.768 55.9102 318.469 55.9102 314.775C55.9102 310.757 67.9829 308.786 76.0013 308.786V308.786ZM96.0523 352.894C96.0523 357.336 83.247 359.525 76.0013 359.525C67.441 359.525 55.9102 356.983 55.9102 352.894V347.718C61.2215 351.123 68.8811 352.234 76.0013 352.234C83.0989 352.234 90.7435 351.123 96.0523 347.718V352.894ZM96.0523 340.531C96.0523 344.971 83.247 347.163 76.0013 347.163C67.441 347.16 55.9102 344.62 55.9102 340.531V334.533C61.219 337.936 68.8811 339.049 76.0013 339.049C83.124 339.049 90.756 337.928 96.0523 334.533V340.531ZM76.0013 333.973C67.4059 333.973 55.9102 331.421 55.9102 327.341V321.326C61.2215 324.731 68.8811 325.842 76.0013 325.842C83.0989 325.842 90.7435 324.731 96.0523 321.326V327.344C96.0523 331.791 83.1792 333.973 76.0013 333.973V333.973Z" fill="#151515"/>
</g>
<g clip-path="url(#clip2_8:332)">
<path d="M341.944 303.712C331.344 303.712 316.835 306.251 316.835 314.775V353.533C316.835 362.062 332.413 364.599 341.944 364.599C351.435 364.599 367.013 362.06 367.013 353.535V314.775C367.013 306.249 352.048 303.712 341.944 303.712V303.712ZM341.944 308.786C351.072 308.786 361.995 311.092 361.995 314.775C361.995 318.786 349.19 320.765 341.944 320.765C333.384 320.768 321.853 318.469 321.853 314.775C321.853 310.757 333.926 308.786 341.944 308.786V308.786ZM361.995 352.894C361.995 357.336 349.19 359.525 341.944 359.525C333.384 359.525 321.853 356.983 321.853 352.894V347.718C327.165 351.123 334.824 352.234 341.944 352.234C349.042 352.234 356.686 351.123 361.995 347.718V352.894ZM361.995 340.531C361.995 344.971 349.19 347.163 341.944 347.163C333.384 347.16 321.853 344.62 321.853 340.531V334.533C327.162 337.936 334.824 339.049 341.944 339.049C349.067 339.049 356.699 337.928 361.995 334.533V340.531ZM341.944 333.973C333.349 333.973 321.853 331.421 321.853 327.341V321.326C327.165 324.731 334.824 325.842 341.944 325.842C349.042 325.842 356.686 324.731 361.995 321.326V327.344C361.995 331.791 349.122 333.973 341.944 333.973V333.973Z" fill="#151515"/>
</g>
<g clip-path="url(#clip3_8:332)">
<path d="M341.944 46.3877C331.344 46.3877 316.835 48.9272 316.835 57.4515V96.2089C316.835 104.738 332.413 107.275 341.944 107.275C351.435 107.275 367.013 104.736 367.013 96.2115V57.4515C367.013 48.9247 352.048 46.3877 341.944 46.3877V46.3877ZM341.944 51.4617C351.072 51.4617 361.995 53.7678 361.995 57.4515C361.995 61.4624 349.19 63.4413 341.944 63.4413C333.384 63.4438 321.853 61.1453 321.853 57.4515C321.853 53.4329 333.926 51.4617 341.944 51.4617V51.4617ZM361.995 95.5696C361.995 100.012 349.19 102.201 341.944 102.201C333.384 102.201 321.853 99.6592 321.853 95.5696V90.3942C327.165 93.7988 334.824 94.91 341.944 94.91C349.042 94.91 356.686 93.7988 361.995 90.3942V95.5696ZM361.995 83.2069C361.995 87.6466 349.19 89.8386 341.944 89.8386C333.384 89.836 321.853 87.2965 321.853 83.2069V77.2095C327.162 80.6116 334.824 81.7253 341.944 81.7253C349.067 81.7253 356.699 80.604 361.995 77.2095V83.2069ZM341.944 76.6488C333.349 76.6488 321.853 74.0966 321.853 70.0171V64.002C327.165 67.4066 334.824 68.5178 341.944 68.5178C349.042 68.5178 356.686 67.4066 361.995 64.002V70.0197C361.995 74.467 349.122 76.6488 341.944 76.6488V76.6488Z" fill="#151515"/>
</g>
<defs>
<clipPath id="clip0_8:332">
<rect width="60.2131" height="60.8875" fill="white" transform="translate(45.8748 46.3877)"/>
</clipPath>
<clipPath id="clip1_8:332">
<rect width="60.2131" height="60.8875" fill="white" transform="translate(45.8748 303.712)"/>
</clipPath>
<clipPath id="clip2_8:332">
<rect width="60.2131" height="60.8875" fill="white" transform="translate(311.818 303.712)"/>
</clipPath>
<clipPath id="clip3_8:332">
<rect width="60.2131" height="60.8875" fill="white" transform="translate(311.818 46.3877)"/>
</clipPath>
</defs>
</svg>
