<svg width="72" height="44" viewBox="0 0 72 44" fill="none" xmlns="http://www.w3.org/2000/svg">
<path d="M17.1823 11.4934H30.6223V12.56H18.4134V20.6045H29.8934V21.6711H18.4134V30.5022H30.7645V31.5556H17.1823V11.4934ZM31.849 11.4934H33.2801L39.6089 20.32L46.0756 11.4934L54.8756 0.280029L40.4178 21.2489L47.849 31.5556H46.3645L39.5867 22.1778L32.7823 31.5556H31.3245L38.8312 21.2356L31.849 11.4934ZM48.4001 12.56V11.4934H63.7201V12.56H56.6401V31.5556H55.4089V12.56H48.4001ZM0.400058 11.4934H1.93784L23.1778 43.2756L14.3645 31.5556L1.64895 13.0134L1.59561 31.5556H0.364502L0.400058 11.4934ZM63.5556 30.1778C63.4377 30.1778 63.3247 30.131 63.2414 30.0476C63.158 29.9643 63.1112 29.8512 63.1112 29.7334C63.1112 29.6155 63.158 29.5024 63.2414 29.4191C63.3247 29.3357 63.4377 29.2889 63.5556 29.2889C63.6735 29.2889 63.7865 29.3357 63.8699 29.4191C63.9532 29.5024 64.0001 29.6155 64.0001 29.7334C64.0001 29.8512 63.9532 29.9643 63.8699 30.0476C63.7865 30.131 63.6735 30.1778 63.5556 30.1778ZM64.769 29H65.4267C65.4271 29.0833 65.4446 29.1656 65.4783 29.2418C65.5119 29.318 65.561 29.3864 65.6223 29.4428C65.6837 29.4991 65.756 29.5421 65.8348 29.5692C65.9135 29.5963 65.997 29.6068 66.0801 29.6C66.5245 29.6 66.7512 29.3422 66.7512 28.8578V25.7778H67.4223V28.8445C67.4419 29.0259 67.4211 29.2095 67.3616 29.3821C67.302 29.5546 67.2051 29.7119 67.0777 29.8426C66.9503 29.9734 66.7957 30.0744 66.6248 30.1385C66.4538 30.2026 66.2709 30.2281 66.089 30.2134C65.922 30.227 65.7541 30.2056 65.5958 30.1506C65.4376 30.0957 65.2926 30.0083 65.17 29.8941C65.0475 29.7799 64.9501 29.6414 64.8841 29.4875C64.8181 29.3335 64.7849 29.1675 64.7867 29H64.769ZM68.3023 28.9645H68.9689C69.0223 29.3734 69.4134 29.6356 70.0045 29.6356C70.5956 29.6356 70.9378 29.3556 70.9378 28.9734C70.9378 28.5911 70.689 28.4445 70.1156 28.3067L69.5556 28.1734C68.7734 27.9911 68.4178 27.6134 68.4178 26.9778C68.4178 26.2045 69.049 25.6934 69.9912 25.6934C70.9334 25.6934 71.5112 26.2045 71.5512 26.9334H70.8978C70.8549 26.7299 70.7367 26.55 70.567 26.4298C70.3973 26.3095 70.1885 26.2576 69.9823 26.2845C69.4534 26.2845 69.0934 26.5422 69.0934 26.9289C69.0934 27.24 69.3201 27.4178 69.8845 27.5511L70.3601 27.6667C71.2489 27.8711 71.6134 28.2356 71.6134 28.8845C71.6134 29.7111 70.9734 30.2178 69.9467 30.2178C69.0134 30.2222 68.3689 29.7378 68.3201 28.9645H68.3023Z" fill="#CDD0D4"/>
</svg>
