<svg width="79" height="21" viewBox="0 0 79 21" fill="none" xmlns="http://www.w3.org/2000/svg">
<path fill-rule="evenodd" clip-rule="evenodd" d="M26.0337 5.84873H26.5232C26.8573 5.84873 27.1281 6.11954 27.1281 6.45359V7.02629C27.1281 7.04404 27.1425 7.05844 27.1602 7.05844C27.4389 6.5656 27.814 6.20717 28.2855 5.98315C28.7571 5.75913 29.2661 5.64711 29.8127 5.64711C30.4021 5.64711 30.9326 5.75632 31.4041 5.97475C31.8757 6.19317 32.2776 6.49279 32.6098 6.87363C32.942 7.25446 33.1939 7.7025 33.3653 8.21774C33.5368 8.73301 33.6225 9.28744 33.6225 9.88112C33.6225 10.4747 33.5314 11.0292 33.3493 11.5444C33.167 12.0597 32.9126 12.5078 32.5857 12.8886C32.2588 13.2694 31.865 13.569 31.4041 13.7874C30.9433 14.0059 30.4396 14.115 29.8931 14.115C29.5287 14.115 29.2072 14.0759 28.9285 13.9975C28.6499 13.9191 28.4034 13.8183 28.1891 13.695C27.9747 13.5718 27.7925 13.4402 27.6425 13.3002C27.4925 13.1602 27.3692 13.0229 27.2728 12.8886C27.2461 12.8886 27.2246 12.9101 27.2246 12.9368V17.006C27.2246 17.4137 26.8941 17.7442 26.4863 17.7442H26.0337C25.626 17.7442 25.2955 17.4137 25.2955 17.006V6.58691C25.2955 6.17923 25.626 5.84873 26.0337 5.84873ZM31.6935 9.88112C31.6935 9.5675 31.6426 9.26506 31.5408 8.97382C31.439 8.68258 31.2889 8.42498 31.0906 8.20094C30.8924 7.97692 30.6539 7.79771 30.3753 7.66329C30.0967 7.52888 29.7805 7.46168 29.4269 7.46168C29.0732 7.46168 28.7571 7.52888 28.4784 7.66329C28.1998 7.79771 27.9613 7.97692 27.7631 8.20094C27.5648 8.42498 27.4148 8.68258 27.3129 8.97382C27.2112 9.26506 27.1602 9.5675 27.1602 9.88112C27.1602 10.1947 27.2112 10.4972 27.3129 10.7883C27.4148 11.0796 27.5648 11.3372 27.7631 11.5612C27.9613 11.7852 28.1998 11.9645 28.4784 12.0989C28.7571 12.2333 29.0732 12.3005 29.4269 12.3005C29.7805 12.3005 30.0967 12.2333 30.3753 12.0989C30.6539 11.9645 30.8924 11.7852 31.0906 11.5612C31.2889 11.3372 31.439 11.0796 31.5408 10.7883C31.6426 10.4972 31.6935 10.1947 31.6935 9.88112ZM36.4022 5.84873H36.9547C37.3073 5.84873 37.5931 6.13458 37.5931 6.48719V7.0935C37.5931 7.11125 37.6075 7.12565 37.6253 7.12565C37.8396 6.6552 38.145 6.29118 38.5416 6.03355C38.9381 5.77593 39.3936 5.64711 39.908 5.64711C40.0259 5.64711 40.141 5.65832 40.2536 5.68072C40.4545 5.72072 40.5992 5.89707 40.5992 6.10193V7.20809C40.5992 7.43054 40.4189 7.61088 40.1964 7.61088C40.1725 7.61088 40.1486 7.60874 40.125 7.60449C39.9696 7.57649 39.8169 7.56248 39.6668 7.56248C39.2167 7.56248 38.855 7.64929 38.5817 7.82291C38.3085 7.99652 38.0995 8.19534 37.9548 8.41939C37.8102 8.64341 37.7137 8.86736 37.6655 9.09139C37.6172 9.31542 37.5931 9.48342 37.5931 9.59547V13.1752C37.5931 13.583 37.2627 13.9135 36.855 13.9135H36.4022C35.9946 13.9135 35.6641 13.583 35.6641 13.1752V6.58691C35.6641 6.17923 35.9946 5.84873 36.4022 5.84873ZM42.9288 5.84873H43.3815C43.7893 5.84873 44.1197 6.17923 44.1197 6.58691V13.1752C44.1197 13.583 43.7893 13.9135 43.3815 13.9135H42.9288C42.5212 13.9135 42.1907 13.583 42.1907 13.1752V6.58691C42.1907 6.17923 42.5212 5.84873 42.9288 5.84873ZM41.9174 3.11009C41.9174 2.78526 42.0326 2.50244 42.263 2.26162C42.4935 2.0208 42.7854 1.90039 43.1391 1.90039C43.4928 1.90039 43.7902 2.01519 44.0313 2.24482C44.2724 2.47444 44.393 2.76286 44.393 3.11009C44.393 3.45732 44.2724 3.74575 44.0313 3.97537C43.7902 4.20499 43.4928 4.3198 43.1391 4.3198C42.7854 4.3198 42.4935 4.19939 42.263 3.95857C42.0326 3.71775 41.9174 3.43492 41.9174 3.11009ZM50.2284 7.69174C49.837 7.40395 49.4887 7.26006 49.1835 7.26006C48.9263 7.26006 48.6744 7.32727 48.4279 7.46168C48.1815 7.59609 48.0582 7.81451 48.0582 8.11694C48.0582 8.36336 48.16 8.54255 48.3636 8.6546C48.5672 8.76658 48.8244 8.86176 49.1352 8.94017C49.446 9.01858 49.7809 9.09986 50.14 9.18386C50.4989 9.26786 50.8338 9.39662 51.1447 9.5703C51.4554 9.74389 51.7126 9.98191 51.9162 10.2843C52.1198 10.5868 52.2217 11.0012 52.2217 11.5276C52.2217 12.0093 52.1226 12.4153 51.9243 12.7458C51.726 13.0762 51.4688 13.3422 51.1527 13.5438C50.8366 13.7455 50.4802 13.891 50.0837 13.9807C49.6871 14.0703 49.2907 14.115 48.8941 14.115C48.2939 14.115 47.742 14.0254 47.2384 13.8462C47.0411 13.7761 46.8044 13.6351 46.5283 13.4231C46.2049 13.175 46.1439 12.7115 46.392 12.3881C46.4132 12.3606 46.4362 12.3346 46.4611 12.3103L46.6611 12.1142C46.9373 11.8437 47.3754 11.832 47.6655 12.0874C47.7825 12.1904 47.884 12.2699 47.9698 12.3257C48.2538 12.5106 48.5994 12.6029 49.0067 12.6029C49.1459 12.6029 49.2907 12.5862 49.4406 12.5525C49.5907 12.5189 49.73 12.4629 49.8586 12.3845C49.9873 12.3061 50.0917 12.2081 50.1721 12.0905C50.2524 11.9729 50.2927 11.8357 50.2927 11.6789C50.2927 11.3988 50.1908 11.1916 49.9872 11.0572C49.7836 10.9228 49.5264 10.8136 49.2156 10.7296C48.9048 10.6456 48.5699 10.5672 48.2109 10.4944C47.8519 10.4216 47.5169 10.3039 47.2062 10.1415C46.8954 9.97911 46.6382 9.75228 46.4346 9.46104C46.2309 9.16979 46.1292 8.76658 46.1292 8.25139C46.1292 7.8033 46.2175 7.41407 46.3944 7.08364C46.5712 6.75321 46.8043 6.48159 47.0937 6.26877C47.383 6.05595 47.7152 5.89914 48.0903 5.79833C48.4654 5.69752 48.8459 5.64711 49.2317 5.64711C49.7461 5.64711 50.2551 5.73952 50.7588 5.92434C50.9412 5.99126 51.1447 6.11518 51.3692 6.2961C51.6867 6.55189 51.7367 7.0166 51.4809 7.33405C51.4596 7.36046 51.4366 7.38536 51.4118 7.40859L51.1715 7.6347C50.912 7.87873 50.5154 7.90272 50.2284 7.69174ZM54.6156 5.84873H54.9718C55.3796 5.84873 55.7101 6.17923 55.7101 6.58691V7.10884C55.9137 6.72801 56.1896 6.38919 56.5701 6.09236C56.9505 5.79553 57.4622 5.64711 58.1053 5.64711C59.3163 5.64711 60.12 6.14555 60.5166 7.14245C60.7952 6.6272 61.1435 6.24917 61.5614 6.00835C61.9794 5.76753 62.4777 5.64711 63.0564 5.64711C63.5709 5.64711 64.0049 5.73673 64.3585 5.91594C64.7122 6.09515 64.9989 6.34158 65.2186 6.65521C65.4383 6.96884 65.5963 7.33567 65.6928 7.7557C65.7893 8.17574 65.8375 8.62655 65.8375 9.10825V13.1752C65.8375 13.583 65.507 13.9135 65.0993 13.9135H64.6467C64.2389 13.9135 63.9084 13.583 63.9084 13.1752V9.34347C63.9084 9.09698 63.887 8.85897 63.8442 8.62934C63.8013 8.39972 63.7263 8.19815 63.6191 8.02453C63.512 7.85091 63.3672 7.7137 63.1851 7.61289C63.0029 7.51208 62.7671 7.46168 62.4777 7.46168C62.1777 7.46168 61.9231 7.52048 61.7141 7.63809C61.5052 7.7557 61.3337 7.91251 61.1998 8.10854C61.0658 8.30453 60.9693 8.52856 60.9104 8.78056C60.8514 9.03265 60.822 9.28744 60.822 9.54504V13.1752C60.822 13.583 60.4915 13.9135 60.0838 13.9135H59.6312C59.2234 13.9135 58.8929 13.583 58.8929 13.1752V9.10825C58.8929 8.60417 58.7912 8.20374 58.5875 7.90692C58.3839 7.61009 58.0464 7.46168 57.5748 7.46168C57.2532 7.46168 56.9826 7.51768 56.763 7.62969C56.5432 7.7417 56.3611 7.89292 56.2164 8.08334C56.0717 8.27376 55.9672 8.4922 55.9029 8.7386C55.8387 8.98501 55.8065 9.2426 55.8065 9.51147V13.1752C55.8065 13.583 55.476 13.9135 55.0683 13.9135H54.6156C54.2079 13.9135 53.8774 13.583 53.8774 13.1752V6.58691C53.8774 6.17923 54.2079 5.84873 54.6156 5.84873ZM68.9548 5.84873H69.4075C69.8152 5.84873 70.1457 6.17923 70.1457 6.58691V13.1752C70.1457 13.583 69.8152 13.9135 69.4075 13.9135H68.9548C68.5471 13.9135 68.2166 13.583 68.2166 13.1752V6.58691C68.2166 6.17923 68.5471 5.84873 68.9548 5.84873ZM67.9433 3.11009C67.9433 2.78526 68.0586 2.50244 68.289 2.26162C68.5194 2.0208 68.8114 1.90039 69.1651 1.90039C69.5188 1.90039 69.8161 2.01519 70.0572 2.24482C70.2984 2.47444 70.419 2.76286 70.419 3.11009C70.419 3.45732 70.2984 3.74575 70.0572 3.97537C69.8161 4.20499 69.5188 4.3198 69.1651 4.3198C68.8114 4.3198 68.5194 4.19939 68.289 3.95857C68.0586 3.71775 67.9433 3.43492 67.9433 3.11009ZM77.38 7.82663C77.3006 7.7645 77.2308 7.71566 77.1706 7.68009C76.9241 7.53449 76.6723 7.46168 76.415 7.46168C76.0614 7.46168 75.7452 7.52888 75.4666 7.66329C75.188 7.79771 74.9495 7.97692 74.7513 8.20094C74.553 8.42498 74.403 8.68258 74.3012 8.97382C74.1993 9.26506 74.1484 9.5675 74.1484 9.88112C74.1484 10.1947 74.1993 10.4972 74.3012 10.7883C74.403 11.0796 74.553 11.3372 74.7513 11.5612C74.9495 11.7852 75.188 11.9645 75.4666 12.0989C75.7452 12.2333 76.0614 12.3005 76.415 12.3005C76.7152 12.3005 76.9938 12.2361 77.251 12.1073C77.303 12.0813 77.3594 12.0459 77.4203 12.001C77.7273 11.7754 78.1557 11.8204 78.409 12.105L78.7022 12.4344C78.9603 12.7244 78.9345 13.1686 78.6444 13.4267C78.6089 13.4584 78.5702 13.4864 78.5289 13.5102C78.2771 13.6558 78.0226 13.7734 77.7654 13.863C77.5082 13.9526 77.2617 14.017 77.0259 14.0563C76.7902 14.0955 76.5866 14.115 76.415 14.115C75.8363 14.115 75.2898 14.0142 74.7754 13.8126C74.261 13.611 73.8162 13.3254 73.4411 12.9557C73.066 12.5862 72.7686 12.1409 72.5489 11.62C72.3293 11.0992 72.2194 10.5196 72.2194 9.88112C72.2194 9.2426 72.3293 8.66299 72.5489 8.14214C72.7686 7.62129 73.066 7.17605 73.4411 6.80642C73.8162 6.43678 74.261 6.15117 74.7754 5.94954C75.2898 5.74792 75.8363 5.64711 76.415 5.64711C76.9081 5.64711 77.4037 5.74513 77.902 5.94114C78.0919 6.01584 78.316 6.1494 78.5742 6.34183C78.9011 6.58545 78.9686 7.04794 78.7249 7.37483C78.7069 7.39907 78.6873 7.42218 78.6664 7.44402L78.3683 7.75563C78.1061 8.02973 77.6787 8.06042 77.38 7.82663Z" fill="#101F30"/>
<path fill-rule="evenodd" clip-rule="evenodd" d="M20.0201 10.5569L18.5246 9.05804C18.406 8.93924 18.3394 8.77823 18.3394 8.6104V6.77586C18.3394 5.08086 18.1634 4.46621 17.8326 3.84654C17.502 3.22687 17.0167 2.74055 16.3984 2.40915C15.78 2.07774 15.1667 1.90125 13.4753 1.90125H11.0563C10.9863 1.90125 10.9296 1.84451 10.9296 1.7745C10.9296 1.74094 10.9429 1.70874 10.9666 1.68497L12.4622 0.186105C12.5811 0.0669576 12.7425 0 12.9109 0H13.7511C16.0063 0 16.8241 0.235313 17.6485 0.677184C18.473 1.11905 19.12 1.76748 19.5609 2.59371C20.0018 3.41993 20.2366 4.23946 20.2366 6.49947V10.4673C20.2366 10.5373 20.1799 10.5941 20.1099 10.5941C20.0762 10.5941 20.0439 10.5807 20.0201 10.5569Z" fill="#101F30"/>
<path fill-rule="evenodd" clip-rule="evenodd" d="M9.70109 20.0632L11.1967 18.5642C11.3156 18.4451 11.477 18.3781 11.6453 18.3781H13.4746C15.166 18.3781 15.7793 18.2017 16.3976 17.8703C17.0159 17.5389 17.5012 17.0526 17.8319 16.4329C18.1626 15.8132 18.3387 15.1986 18.3387 13.5036V11.0796C18.3387 11.0096 18.3955 10.9529 18.4654 10.9529C18.4991 10.9529 18.5314 10.9662 18.5552 10.9901L20.0507 12.4888C20.1693 12.6076 20.2358 12.7686 20.2358 12.9365V13.7799C20.2358 16.04 20.001 16.8595 19.5601 17.6857C19.1192 18.5119 18.4722 19.1604 17.6477 19.6023C16.8233 20.0441 16.0055 20.2795 13.7504 20.2795H9.79076C9.72075 20.2795 9.66406 20.2227 9.66406 20.1527C9.66406 20.1191 9.67739 20.0869 9.70109 20.0632Z" fill="#101F30"/>
<path fill-rule="evenodd" clip-rule="evenodd" d="M0.216473 9.72322L1.71203 11.2221C1.83059 11.3409 1.89717 11.5019 1.89717 11.6697V13.5042C1.89717 15.1993 2.07328 15.8139 2.40396 16.4335C2.73466 17.0532 3.21992 17.5395 3.83826 17.8709C4.4566 18.2024 5.06993 18.3789 6.76129 18.3789H9.1803C9.25031 18.3789 9.30708 18.4356 9.30708 18.5056C9.30708 18.5391 9.29375 18.5714 9.27006 18.5951L7.77437 20.094C7.65548 20.2131 7.49408 20.2801 7.32577 20.2801H6.48549C4.23035 20.2801 3.41257 20.0448 2.58813 19.6029C1.76368 19.161 1.11664 18.5126 0.675727 17.6864C0.234807 16.8602 0 16.0406 0 13.7807V9.81282C0 9.7428 0.0567481 9.68604 0.126751 9.68604C0.160414 9.68604 0.192695 9.69945 0.216473 9.72322Z" fill="#101F30"/>
<path fill-rule="evenodd" clip-rule="evenodd" d="M10.5348 0.21628L9.03912 1.71515C8.92023 1.8343 8.7589 1.90126 8.59057 1.90126H6.76129C5.06993 1.90126 4.45659 2.07774 3.83826 2.40915C3.21992 2.74055 2.73466 3.22687 2.40396 3.84654C2.07328 4.4662 1.89717 5.08086 1.89717 6.77587V9.1998C1.89717 9.26981 1.84042 9.32658 1.77041 9.32658C1.73676 9.32658 1.70447 9.31317 1.6807 9.28939L0.185139 7.79057C0.066583 7.67176 0 7.51077 0 7.34292V6.49948C0 4.23947 0.234807 3.41994 0.675727 2.59371C1.11664 1.76749 1.76368 1.11905 2.58813 0.677184C3.41257 0.235314 4.23035 0 6.48549 0H10.4451C10.5151 0 10.5719 0.0567481 10.5719 0.126751C10.5719 0.16032 10.5585 0.192518 10.5348 0.21628Z" fill="#101F30"/>
<path fill-rule="evenodd" clip-rule="evenodd" d="M16.8598 7.39887L14.8204 5.44555C14.6855 5.31037 14.5277 5.2121 14.3595 5.15075C14.2205 5.09807 14.0698 5.06922 13.9123 5.06922H7.8925C7.8225 5.06922 7.76575 5.01248 7.76575 4.94247C7.76575 4.90889 7.77908 4.87667 7.80281 4.85291L9.29984 3.35388C9.41872 3.23485 9.58006 3.16797 9.74831 3.16797H14.5446C15.9417 3.16797 17.0742 4.30293 17.0742 5.70298V7.30732C17.0742 7.37733 17.0175 7.43408 16.9475 7.43408C16.9148 7.43408 16.8834 7.42146 16.8598 7.39887Z" fill="#101F30"/>
<path fill-rule="evenodd" clip-rule="evenodd" d="M12.8524 16.8994L14.8021 14.8549C14.9371 14.7198 15.0351 14.5616 15.0963 14.3931C15.1489 14.2537 15.1776 14.1026 15.1776 13.9448V7.91239C15.1776 7.84239 15.2344 7.78564 15.3044 7.78564C15.338 7.78564 15.3704 7.79905 15.3942 7.82291L16.8899 9.3231C17.0083 9.44191 17.0748 9.60283 17.0748 9.77058V14.5786C17.0748 15.9787 15.9423 17.1137 14.5453 17.1137H12.9442C12.8742 17.1137 12.8174 17.0569 12.8174 16.9869C12.8174 16.9543 12.8299 16.9229 12.8524 16.8994Z" fill="#101F30"/>
<path fill-rule="evenodd" clip-rule="evenodd" d="M3.37727 12.8807L5.41668 14.834C5.55158 14.9692 5.70937 15.0674 5.87754 15.1288C6.01659 15.1814 6.16733 15.2103 6.3248 15.2103H12.3446C12.4146 15.2103 12.4713 15.2671 12.4713 15.3371C12.4713 15.3707 12.458 15.4028 12.4342 15.4266L10.9372 16.9256C10.8183 17.0447 10.657 17.1115 10.4887 17.1115H5.6924C4.29537 17.1115 3.16284 15.9766 3.16284 14.5766V12.9722C3.16284 12.9022 3.21959 12.8455 3.2896 12.8455C3.32227 12.8455 3.35367 12.858 3.37727 12.8807Z" fill="#101F30"/>
<path fill-rule="evenodd" clip-rule="evenodd" d="M7.38528 3.38219L5.43553 5.42666C5.30064 5.56185 5.20258 5.71997 5.14137 5.88851C5.08879 6.02786 5.06001 6.17893 5.06001 6.33673V12.3692C5.06001 12.4392 5.00326 12.4959 4.93326 12.4959C4.89958 12.4959 4.86728 12.4825 4.84351 12.4587L3.3478 10.9585C3.22935 10.8397 3.16284 10.6788 3.16284 10.511V5.70298C3.16284 4.30293 4.29536 3.16797 5.6924 3.16797H7.29355C7.36355 3.16797 7.4203 3.22471 7.4203 3.29472C7.4203 3.3273 7.40775 3.35862 7.38528 3.38219Z" fill="#101F30"/>
</svg>
