<svg width="96" height="32" viewBox="0 0 96 32" fill="none" xmlns="http://www.w3.org/2000/svg">
<path d="M19.5915 19.0611C21.2977 19.0611 22.6809 17.678 22.6809 15.9717C22.6809 14.2654 21.2977 12.8823 19.5915 12.8823C17.8852 12.8823 16.502 14.2654 16.502 15.9717C16.502 17.678 17.8852 19.0611 19.5915 19.0611Z" fill="#F2F2F2" fill-opacity="0.5"/>
<path fill-rule="evenodd" clip-rule="evenodd" d="M19.5916 9.69043C23.7395 9.69043 27.5928 10.2856 30.4982 11.2858C33.9988 12.4911 36.151 14.3177 36.151 15.9719C36.151 17.6955 33.87 19.6361 30.1109 20.8816C27.2689 21.8232 23.529 22.3148 19.5916 22.3148C15.5546 22.3148 11.7318 21.8535 8.85776 20.8713C5.22157 19.6285 3.03146 17.6627 3.03146 15.9719C3.03146 14.3311 5.08646 12.5185 8.53784 11.3152C11.454 10.2985 15.4026 9.69043 19.591 9.69043H19.5916Z" stroke="#F2F2F2" stroke-opacity="0.5" stroke-width="1.47797"/>
<path fill-rule="evenodd" clip-rule="evenodd" d="M14.1234 12.8492C16.1955 9.25599 18.6361 6.21533 20.954 4.19814C23.7468 1.76774 26.4045 0.815925 27.8373 1.64218C29.3306 2.50328 29.8722 5.44882 29.0731 9.32737C28.4696 12.2598 27.0265 15.745 25.0595 19.1559C23.0426 22.6531 20.7332 25.7341 18.4469 27.7326C15.5538 30.2617 12.7567 31.1769 11.292 30.3322C9.87067 29.5131 9.32714 26.8269 10.009 23.2358C10.5851 20.2017 12.0308 16.4775 14.1227 12.8491L14.1234 12.8492Z" stroke="#F2F2F2" stroke-opacity="0.5" stroke-width="1.47797"/>
<path fill-rule="evenodd" clip-rule="evenodd" d="M14.1285 19.165C12.0505 15.5759 10.6356 11.9422 10.045 8.92665C9.33415 5.29331 9.83678 2.51533 11.2684 1.68668C12.7601 0.82305 15.5825 1.82487 18.5436 4.45419C20.7825 6.44206 23.0815 9.43234 25.0543 12.84C27.0769 16.3338 28.5928 19.8733 29.1825 22.8522C29.9287 26.6218 29.3248 29.5021 27.8614 30.3492C26.4415 31.1712 23.8431 30.301 21.0725 27.9167C18.7316 25.9024 16.2272 22.7898 14.1285 19.165V19.165Z" stroke="#F2F2F2" stroke-opacity="0.5" stroke-width="1.47797"/>
<path fill-rule="evenodd" clip-rule="evenodd" d="M53.8845 23.8647L50.0978 18.1438C52.0116 17.9749 53.736 16.5883 53.736 14.0549C53.736 11.4772 51.9067 9.82739 49.3405 9.82739H43.7049V23.8541H45.4507V18.2807H48.248L51.8231 23.8541L53.8845 23.8647ZM49.1316 16.7563H45.4516V11.3936H49.1316C50.7938 11.3936 51.9289 12.4869 51.9289 14.0647C51.9289 15.6425 50.7929 16.7581 49.1316 16.7581V16.7563ZM60.3831 24.1163C62.0453 24.1163 63.4116 23.5696 64.4213 22.5607L63.664 21.5296C62.864 22.3501 61.6871 22.8123 60.5307 22.8123C58.344 22.8123 56.9973 21.2141 56.8711 19.3012H65.0933V18.9012C65.0933 15.8523 63.2844 13.4541 60.2133 13.4541C57.3111 13.4541 55.2089 15.8309 55.2089 18.7749C55.2089 21.9509 57.3751 24.1083 60.3822 24.1083L60.3831 24.1163ZM63.5387 18.1429H56.872C56.9565 16.5874 58.0276 14.7563 60.1947 14.7563C62.5085 14.7563 63.5173 16.6283 63.5387 18.1429ZM75.5689 23.8638V16.8816C75.5689 14.4212 73.7822 13.4532 71.6365 13.4532C69.9742 13.4532 68.6711 13.9998 67.5778 15.1358L68.3138 16.2292C69.2178 15.2621 70.2071 14.8203 71.4267 14.8203C72.8987 14.8203 73.9929 15.5981 73.9929 16.9652V18.7945C73.1724 17.8478 72.016 17.4061 70.6276 17.4061C68.9031 17.4061 67.072 18.4789 67.072 20.7501C67.072 22.9581 68.9013 24.1154 70.6276 24.1154C71.9947 24.1154 73.152 23.6318 73.9929 22.7065V23.8621L75.5689 23.8638ZM71.1956 22.9803C69.7236 22.9803 68.6925 22.0558 68.6925 20.7723C68.6925 19.4683 69.7236 18.5429 71.1956 18.5429C72.3102 18.5429 73.3822 18.9634 73.9929 19.8052V21.7189C73.3831 22.5598 72.3102 22.9812 71.1956 22.9812V22.9803ZM83.1956 24.1163C85.0462 24.1163 86.1396 23.3589 86.9182 22.3501L85.8667 21.3829C85.1938 22.2869 84.3316 22.7074 83.2889 22.7074C81.1227 22.7074 79.7778 21.0247 79.7778 18.7749C79.7778 16.5252 81.1236 14.8638 83.2889 14.8638C84.3404 14.8638 85.2027 15.2638 85.8667 16.1883L86.9182 15.2212C86.1404 14.2114 85.0462 13.4549 83.1956 13.4549C80.1671 13.4549 78.1271 15.7687 78.1271 18.7758C78.1271 21.8043 80.1671 24.1092 83.1956 24.1092V24.1163ZM91.6933 24.1163C92.6178 24.1163 93.1867 23.8425 93.5867 23.4647L93.1245 22.2869C92.9138 22.5181 92.5022 22.7074 92.0516 22.7074C91.3582 22.7074 91.0205 22.1607 91.0205 21.4034V15.0941H93.0827V13.7065H91.0205V10.9305H89.4427V13.7065H87.76V15.0949H89.4427V21.7412C89.4427 23.2558 90.2 24.1181 91.6933 24.1181V24.1163Z" fill="#F2F2F2" fill-opacity="0.5"/>
</svg>
