<svg width="109" height="23" viewBox="0 0 109 23" fill="none" xmlns="http://www.w3.org/2000/svg">
<path d="M76.127 22.0556H81.0034V9.07715L76.127 11.6411V22.0556Z" fill="#151515"/>
<path d="M25.4265 15.457L22.9226 21.7659L31.1776 17.4197L29.6469 13.325L25.4265 15.457Z" fill="#151515"/>
<path d="M76.537 5.49683L76.3511 5.58976L76.127 5.70457V10.7396L81.0034 8.17015L81.3971 7.9624L81.8016 7.75466L86.0877 5.49683H77.0782H76.537Z" fill="#151515"/>
<path d="M40.3733 22.0552H45.0475V9.1096L40.3733 2.09009V22.0552Z" fill="#151515"/>
<path d="M24.5846 15.4354L24.8033 14.8723L27.5969 7.83088L25.2898 1.66968L18.653 17.9665L18.4234 18.5351L18.1938 19.0927L18.1008 19.3333L21.6215 22.4494L21.7527 22.5697L21.8402 22.3346L24.355 15.993L24.5846 15.4354Z" fill="#151515"/>
<path d="M36.1415 15.2651L34.3429 10.5144L34.2008 10.1372L30.4887 0.345947H25.6505L25.738 0.575558L25.7653 0.663028L28.0286 6.7313L28.2418 7.28346L28.4496 7.83561L30.0787 12.2091L30.2263 12.5864L30.3685 12.9636L31.8937 17.0419L32.0359 17.4246L32.1725 17.8073L33.7689 22.055H38.7164L36.2837 15.6424L36.1415 15.2651Z" fill="#151515"/>
<path d="M41.6849 0.345947H40.1705L40.3728 0.652094L45.047 7.67161L45.4406 8.2675L45.8452 8.86886L53.7175 20.7047V13.0565L45.5937 0.345947H41.6849Z" fill="#151515"/>
<path d="M67.3141 0.345947H62.465V22.055H67.3141V0.345947Z" fill="#151515"/>
<path d="M85.7594 0.85437L85.5571 0.509955L85.4641 0.345947H69.3805V4.68667H87.9571L87.5142 3.92131L85.7594 0.85437Z" fill="#151515"/>
<path d="M93.4735 0.345947H88.1815L95.4252 12.9581L98.0056 8.3331L93.4735 0.345947Z" fill="#151515"/>
<path d="M54.5157 12.8214V22.055H59.19V0.345947H54.5157V12.8214Z" fill="#151515"/>
<path d="M12.8254 15.7573C12.4154 17.3373 11.0322 18.2502 8.99853 18.2502C7.56074 18.2502 5.71839 17.802 5.04049 15.6808L4.99129 15.5059H0L0.0492022 15.7792C0.765367 19.9341 4.12205 22.3778 9.00947 22.3778C10.9711 22.4345 12.899 21.8596 14.5092 20.7377V19.4147C14.569 18.7115 14.4452 18.0048 14.1501 17.3637C13.8549 16.7227 13.3985 16.1692 12.8254 15.7573Z" fill="#151515"/>
<path d="M4.78891 6.4749C5.25906 5.0371 6.58752 4.10226 8.42987 4.10226C9.21426 4.04411 9.9961 4.24464 10.6557 4.67316C11.3152 5.10168 11.8162 5.73456 12.0818 6.4749L12.131 6.63344H16.9254L16.8762 6.35463C16.1163 2.37472 12.9455 0.00208041 8.3916 0.00208041C6.49219 -0.0396163 4.63207 0.546474 3.09963 1.66949L3.02856 3.24396C3.02856 3.79065 3.65179 5.70953 4.78891 6.4749Z" fill="#151515"/>
<path d="M11.3658 9.37794V9.35061L7.539 8.45404C6.79787 8.28277 6.07478 8.04112 5.37957 7.7324L4.99142 7.5356L4.60874 7.31145C3.86282 6.88348 3.24961 6.2578 2.83673 5.50342C2.42385 4.74905 2.22735 3.8953 2.2689 3.03633V2.3147L1.85888 2.86139L1.81515 2.92699C1.52746 3.31432 1.28704 3.7346 1.09898 4.17891C0.756761 5.00138 0.585632 5.88493 0.596028 6.7757C0.596028 9.94104 2.44931 11.9747 6.1176 12.7893L9.86244 13.6367C10.6527 13.8333 11.4231 14.1023 12.164 14.4403L12.5576 14.6426L12.9458 14.8722C13.7226 15.3292 14.3563 15.9941 14.7755 16.7919C15.1948 17.5898 15.3828 18.4889 15.3184 19.3879V20.1368L15.7284 19.5901L15.7776 19.5245C15.9152 19.3495 16.043 19.167 16.1603 18.9778C16.2866 18.7644 16.3998 18.5435 16.4993 18.3163C16.8698 17.4532 17.056 16.5222 17.046 15.5829C17.0569 12.4339 15.056 10.2362 11.3658 9.37794Z" fill="#151515"/>
<path d="M95.9167 14.801V22.0556H100.728V14.801H96.294H95.9167Z" fill="#151515"/>
<path d="M103.379 0.345947L103.314 0.466219L98.9183 8.32763L98.6941 8.73765L98.4645 9.1422L95.8842 13.7617L95.917 13.8273V13.9913H100.629L100.695 13.8765L100.728 13.8273L100.766 13.7617L108.54 0.345947H103.379Z" fill="#151515"/>
</svg>
