<svg width="120" height="26" viewBox="0 0 120 26" fill="none" xmlns="http://www.w3.org/2000/svg">
<path fill-rule="evenodd" clip-rule="evenodd" d="M34.8589 17.7319C33.9849 17.7355 33.1159 17.6003 32.2844 17.3313C31.4865 17.0723 30.7534 16.6453 30.1344 16.0792L31.2593 14.1764C31.8319 14.5715 32.4434 14.9071 33.0842 15.178C33.6205 15.4113 34.1994 15.5306 34.7843 15.5284C35.184 15.5284 35.5091 15.4533 35.7338 15.3032C35.9589 15.178 36.0589 14.9528 36.0589 14.6769C36.0589 14.4269 35.9341 14.1764 35.6338 14.0263C35.1641 13.8008 34.6689 13.6328 34.1589 13.5257L32.4091 12.9496C31.9344 12.7493 31.5596 12.549 31.2593 12.3233C30.978 12.1373 30.7531 11.8777 30.6091 11.5727C30.4733 11.2565 30.4054 10.9153 30.4098 10.5711C30.4024 10.0847 30.5041 9.60285 30.7074 9.1609C30.9107 8.71895 31.2104 8.32814 31.5844 8.01717C31.9344 7.71646 32.3843 7.49128 32.8844 7.31582C33.3844 7.14084 33.9342 7.06578 34.5089 7.06578C35.2839 7.06578 36.0091 7.16618 36.6842 7.36602C37.3588 7.59168 38.0085 7.96697 38.6338 8.51821L37.409 10.3957C36.9252 10.049 36.4055 9.75516 35.859 9.51932C35.433 9.33467 34.9732 9.24088 34.5089 9.24395C34.1838 9.24395 33.884 9.29415 33.6593 9.44427C33.4093 9.56952 33.3094 9.7947 33.3094 10.0954C33.3094 10.3957 33.4342 10.596 33.6842 10.7461C33.9342 10.8967 34.4343 11.0468 35.1089 11.2218C35.7357 11.38 36.3534 11.5722 36.9591 11.7979C37.3907 11.9679 37.8016 12.1864 38.184 12.449C38.4864 12.6723 38.7275 12.9685 38.8848 13.3099C39.0421 13.6514 39.1105 14.027 39.0837 14.402C39.0837 15.4285 38.7089 16.2298 37.9339 16.8307C37.1838 17.4312 36.1841 17.7319 34.8589 17.7319V17.7319ZM47.2327 17.0057C46.8077 17.1812 46.3081 17.3561 45.7578 17.5067C45.208 17.6569 44.6582 17.7568 44.0831 17.7568C43.7113 17.7595 43.341 17.709 42.9835 17.6067C42.6431 17.5073 42.3277 17.3367 42.0584 17.1061C41.8083 16.9053 41.6085 16.6051 41.4584 16.2795C41.3083 15.929 41.2083 15.5035 41.2083 15.003V9.61925H39.9084V7.26562H41.2332V3.98594H44.3331V7.24028H46.4329V9.61925H44.3331V13.9254C44.3331 14.251 44.4082 14.5015 44.5832 14.6769C44.7581 14.8017 44.9828 14.8773 45.2334 14.8773C45.4829 14.8773 45.733 14.8519 45.9581 14.752C46.2077 14.6769 46.4329 14.6019 46.6079 14.5015L47.2079 17.0052H47.2327V17.0057ZM53.0821 17.7319C52.2866 17.7459 51.4962 17.6012 50.7572 17.3064C50.1137 17.0512 49.5316 16.6627 49.049 16.1664C48.5665 15.6701 48.1945 15.0773 47.9575 14.4269C47.4664 13.1195 47.4664 11.6782 47.9575 10.3708C48.1945 9.72042 48.5665 9.12758 49.049 8.63128C49.5316 8.13497 50.1137 7.74646 50.7572 7.49128C51.4322 7.2159 52.2072 7.06578 53.0821 7.06578C53.8344 7.03042 54.5854 7.15746 55.2841 7.43828C55.9829 7.7191 56.613 8.14711 57.1315 8.69319C57.6067 9.16889 57.9567 9.74498 58.2068 10.3708C58.7184 11.683 58.7184 13.1395 58.2068 14.4518C57.9681 15.0943 57.5981 15.68 57.1203 16.1714C56.6425 16.6629 56.0675 17.0493 55.4319 17.3059C54.6852 17.604 53.886 17.7487 53.0821 17.7314V17.7319ZM50.8322 12.4237C50.8322 13.225 51.0326 13.8761 51.4571 14.3518C51.9075 14.8524 52.4573 15.1024 53.107 15.1024C53.417 15.1085 53.7243 15.044 54.0058 14.914C54.2873 14.784 54.5356 14.5918 54.732 14.3518C54.939 14.0982 55.0997 13.8102 55.2067 13.5008C55.332 13.1748 55.3817 12.7995 55.3817 12.4237C55.3817 11.5976 55.157 10.9464 54.7315 10.4707C54.307 9.97016 53.7572 9.72012 53.107 9.72012C52.7979 9.71944 52.4924 9.78626 52.2118 9.9159C51.9312 10.0455 51.6823 10.2349 51.4824 10.4707C51.2821 10.7212 51.1071 10.9718 50.9824 11.3217C50.8696 11.6777 50.8188 12.0505 50.8322 12.4237ZM66.6555 9.94482C65.9059 9.94482 65.2059 10.0701 64.5806 10.3206C64.0304 10.5067 63.5622 10.8786 63.2563 11.3724V17.5565H60.1315V7.2661H63.0063V9.31901C63.3562 8.61813 63.8061 8.06737 64.3808 7.6916C64.9306 7.29096 65.5057 7.09064 66.1306 7.0653H66.4557L66.6555 7.09064V9.94482V9.94482ZM68.0305 19.0839C68.4656 19.2355 68.9202 19.3196 69.3806 19.3345C69.7554 19.3345 70.0552 19.2092 70.2804 18.9587C70.4802 18.7082 70.6552 18.2076 70.8302 17.5565L66.9309 7.2661H70.1551L72.5303 14.8524L74.6052 7.2661H77.5296L73.605 19.2087C73.3092 20.1865 72.6568 21.0175 71.7771 21.5369C70.8975 22.0564 69.8548 22.2264 68.8557 22.0132C68.6056 21.9635 68.3059 21.8884 68.0305 21.7632V19.0839ZM84.929 17.7319C84.154 17.7319 83.4541 17.5818 82.8789 17.2314C82.2946 16.9098 81.8103 16.4334 81.4791 15.8545V17.5565H78.754V3.23486H81.9041V8.94323C82.2392 8.35552 82.728 7.87021 83.3182 7.53943C83.9083 7.20865 84.5774 7.0449 85.2536 7.06578C85.9038 7.06578 86.5038 7.19104 87.0536 7.49128C87.6034 7.7418 88.0533 8.14243 88.4783 8.61813C89.0849 9.46173 89.4828 10.4372 89.6392 11.4644C89.7956 12.4917 89.7061 13.5414 89.3781 14.5273C89.1423 15.1519 88.7951 15.7286 88.3535 16.2293C87.9199 16.7058 87.3909 17.0858 86.801 17.3446C86.211 17.6035 85.5732 17.7354 84.929 17.7319V17.7319ZM84.0541 15.1029C84.5493 15.1036 85.0323 14.9495 85.4357 14.6622C85.839 14.3749 86.1424 13.9686 86.3035 13.5004C86.4838 13.0043 86.5348 12.4705 86.4517 11.9492C86.3687 11.4279 86.1543 10.9364 85.8287 10.5209C85.6363 10.2669 85.3865 10.0619 85.0998 9.92264C84.8131 9.7834 84.4975 9.71384 84.1789 9.71964C83.7041 9.71964 83.2538 9.8951 82.8292 10.2207C82.4178 10.5769 82.093 11.0221 81.8793 11.5225V13.6758C82.0765 14.093 82.3876 14.4459 82.7767 14.694C83.1658 14.9421 83.617 15.0752 84.0785 15.078L84.0541 15.1029V15.1029ZM91.2526 3.23486H94.3774V13.8761C94.3774 14.6774 94.7025 15.0527 95.3771 15.0527C95.7341 15.0537 96.0859 14.9677 96.4021 14.8022L96.8271 17.131C95.9518 17.515 95.0082 17.7194 94.0523 17.7319C93.1526 17.7319 92.4526 17.4814 91.9774 17.031C91.4778 16.53 91.2278 15.8788 91.2278 14.9777V3.23486H91.2526ZM102.727 17.7319C101.931 17.7459 101.141 17.6012 100.402 17.3064C99.7545 17.0528 99.1681 16.6652 98.6812 16.1689C98.1944 15.6726 97.818 15.0789 97.5768 14.4269C97.2218 13.4607 97.132 12.4171 97.3166 11.4045C97.5012 10.3918 97.9536 9.44709 98.6267 8.66833C99.1267 8.16729 99.6766 7.79199 100.376 7.49128C101.052 7.2159 101.827 7.06578 102.701 7.06578C103.454 7.03042 104.205 7.15746 104.903 7.43828C105.602 7.7191 106.232 8.14711 106.751 8.69319C107.251 9.16889 107.576 9.74498 107.826 10.3708C108.195 11.3348 108.292 12.3816 108.107 13.3969C107.921 14.4123 107.461 15.3574 106.776 16.1294C106.287 16.6466 105.69 17.0487 105.026 17.3064C104.287 17.6012 103.497 17.7459 102.701 17.7319H102.726H102.727ZM100.452 12.4237C100.452 13.225 100.652 13.8761 101.076 14.3518C101.527 14.8524 102.077 15.1024 102.726 15.1024C103.036 15.1066 103.343 15.0414 103.624 14.9115C103.905 14.7816 104.154 14.5904 104.351 14.3518C104.558 14.0982 104.719 13.8102 104.826 13.5008C104.951 13.1748 105.001 12.7995 105.001 12.4237C105.001 11.5976 104.776 10.9464 104.351 10.4707C103.926 9.97016 103.376 9.72012 102.726 9.72012C102.417 9.71944 102.112 9.78626 101.831 9.9159C101.55 10.0455 101.302 10.2349 101.102 10.4707C100.901 10.7212 100.726 10.9718 100.602 11.3217C100.477 11.6726 100.452 12.0231 100.452 12.4237ZM116.675 17.5565L114 13.4004L112.9 14.5522V17.5565H109.776V3.23486H112.9V11.5225L116.375 7.2661H119.7L116 11.698L120 17.556H116.675L116.675 17.5565Z" fill="#F2F2F2" fill-opacity="0.5"/>
<path fill-rule="evenodd" clip-rule="evenodd" d="M12.4977 11.6811H7.53369V14.0171H12.3786C12.665 14.0171 12.9275 13.9004 13.1421 13.7135C13.3334 13.5266 13.4529 13.2464 13.4529 12.896C13.4595 12.5943 13.3672 12.2988 13.1899 12.0545C12.9987 11.8212 12.784 11.6811 12.4977 11.6811ZM12.665 8.85421C12.8801 8.71413 12.9753 8.41006 12.9753 8.01277C12.9753 7.66281 12.8797 7.4056 12.7123 7.2421C12.5396 7.09364 12.32 7.01101 12.0923 7.00879H7.53369V9.11094H11.9966C12.2357 9.11094 12.4738 8.99429 12.665 8.85421Z" fill="#F2F2F2" fill-opacity="0.5"/>
<path fill-rule="evenodd" clip-rule="evenodd" d="M20.5587 0H1.1149C0.494821 0 0 0.493865 0 1.08669V20.498C0 21.0908 0.495299 21.4614 1.09004 21.4614H3.96335V25.3386L7.52988 21.4862H20.5587C21.153 21.4862 21.5245 21.1157 21.5245 20.498V1.11155C21.5245 0.518725 21.153 0.0248606 20.5339 0.0248606L20.5587 0ZM17.2891 15.7315C17.0414 16.1761 16.67 16.5466 16.2239 16.8182C15.7535 17.1146 15.2333 17.3861 14.6386 17.51C14.0443 17.6582 13.4003 17.7815 12.7315 17.7815H3.96335V3.95139H13.9205C14.4158 3.95139 14.837 4.05036 15.2333 4.27267C15.61 4.47192 15.946 4.73997 16.2239 5.06295C16.7786 5.7369 17.077 6.58536 17.0663 7.45817C17.0663 8.10024 16.8927 8.71793 16.571 9.31076C16.2366 9.90749 15.7139 10.3766 15.0846 10.6446C15.8773 10.8665 16.4964 11.2614 16.9669 11.8298C17.4129 12.4226 17.6362 13.1876 17.6362 14.1509C17.6362 14.7686 17.5119 15.2873 17.2642 15.7315H17.2891V15.7315Z" fill="#F2F2F2" fill-opacity="0.5"/>
</svg>
