<svg width="89" height="24" viewBox="0 0 89 24" fill="none" xmlns="http://www.w3.org/2000/svg">
<g opacity="0.974563">
<g opacity="0.974563">
<path opacity="0.974563" fill-rule="evenodd" clip-rule="evenodd" d="M13.3137 17.1322V10.6771C13.3137 10.4472 13.1273 10.2608 12.8974 10.2608H6.47498V3.59766H19.5288C19.7587 3.59766 19.9451 3.78403 19.9451 4.01394V17.1322H13.3137Z" fill="#CDD0D4"/>
<path opacity="0.404989" fill-rule="evenodd" clip-rule="evenodd" d="M6.47502 3.59766V10.2608H0.344371C0.229418 10.2608 0.13623 10.1676 0.13623 10.0527C0.13623 9.99765 0.158023 9.94486 0.196843 9.90586L6.47502 3.59766Z" fill="#CDD0D4"/>
<path opacity="0.404989" fill-rule="evenodd" clip-rule="evenodd" d="M13.3137 23.2911V17.1322H19.9452L13.6694 23.438C13.5883 23.5194 13.4565 23.5197 13.3751 23.4387C13.3358 23.3996 13.3137 23.3465 13.3137 23.2911Z" fill="#CDD0D4"/>
<path opacity="0.404989" fill-rule="evenodd" clip-rule="evenodd" d="M6.47498 10.2607H13.1055C13.2205 10.2607 13.3136 10.3539 13.3136 10.4689V17.1321H6.89126C6.66135 17.1321 6.47498 16.9458 6.47498 16.7159V10.2607Z" fill="#CDD0D4"/>
</g>
</g>
<path d="M45.4917 8.19641H42.8689V13.1668C42.8689 13.581 42.9721 13.8837 43.1787 14.0749C43.3853 14.2661 43.6872 14.3736 44.0844 14.3975C44.4478 14.4193 44.891 14.4179 45.414 14.3931C45.4329 14.3922 45.4576 14.3909 45.4881 14.3894C45.5269 14.3874 45.56 14.4172 45.562 14.4561C45.5621 14.4573 45.5621 14.4585 45.5621 14.4597V17.1184C45.5621 17.1543 45.5351 17.1844 45.4994 17.1883C45.4799 17.1905 45.4637 17.1923 45.451 17.1936C43.3965 17.4132 41.9439 17.21 41.0932 16.584C40.2273 15.9468 39.7943 14.8077 39.7943 13.1668V8.19641H37.7911C37.7522 8.19641 37.7207 8.1649 37.7207 8.12602V5.30366C37.7207 5.26479 37.7522 5.23328 37.7911 5.23328H39.7943V3.25915C39.7943 3.20338 39.8272 3.15287 39.8782 3.13036L42.7701 1.85426C42.8056 1.83857 42.8472 1.85468 42.8629 1.89024C42.8668 1.89919 42.8689 1.90887 42.8689 1.91866V5.23328H45.4917C45.5306 5.23328 45.5621 5.26479 45.5621 5.30366V8.12602C45.5621 8.1649 45.5306 8.19641 45.4917 8.19641ZM51.1369 7.28835C51.4229 6.52367 51.8956 5.95016 52.555 5.56782C53.1585 5.21792 53.8252 5.02813 54.555 4.99844C54.5875 4.99712 54.6319 4.99604 54.6882 4.99519C54.7271 4.9946 54.7591 5.02564 54.7597 5.06452C54.7597 5.06487 54.7597 5.06522 54.7597 5.06557V8.30672C54.7597 8.37072 54.7078 8.42259 54.6438 8.42259C54.6403 8.42259 54.6368 8.42244 54.6333 8.42212C53.7467 8.34173 52.9507 8.53731 52.2452 9.00888C51.5063 9.50274 51.1369 10.3232 51.1369 11.4702V17.111C51.1369 17.1499 51.1054 17.1814 51.0665 17.1814H48.1327C48.0939 17.1814 48.0623 17.1499 48.0623 17.111V5.30366C48.0623 5.26479 48.0939 5.23328 48.1327 5.23328H51.0665C51.1054 5.23328 51.1369 5.26479 51.1369 5.30366V7.28835ZM65.6745 5.23328H68.6083C68.6472 5.23328 68.6787 5.26479 68.6787 5.30366V17.111C68.6787 17.1499 68.6472 17.1814 68.6083 17.1814H65.6745C65.6356 17.1814 65.6041 17.1499 65.6041 17.111V15.7715C64.6825 16.9345 63.3876 17.5159 61.7192 17.5159C60.1303 17.5159 58.7678 16.9066 57.6317 15.6879C56.4956 14.4692 55.9275 12.9757 55.9275 11.2073C55.9275 9.439 56.4956 7.9455 57.6317 6.72679C58.7678 5.50808 60.1303 4.89873 61.7192 4.89873C63.3876 4.89873 64.6825 5.4802 65.6041 6.64315V5.30366C65.6041 5.26479 65.6356 5.23328 65.6745 5.23328ZM59.9316 13.6448C60.5513 14.2661 61.3378 14.5767 62.2912 14.5767C63.2446 14.5767 64.0351 14.2621 64.6627 13.6328C65.2903 13.0035 65.6041 12.1951 65.6041 11.2073C65.6041 10.2196 65.2903 9.41114 64.6627 8.78187C64.0351 8.1526 63.2446 7.83797 62.2912 7.83797C61.3378 7.83797 60.5513 8.1526 59.9316 8.78187C59.312 9.41114 59.0021 10.2196 59.0021 11.2073C59.0021 12.1951 59.312 13.0075 59.9316 13.6448ZM77.9212 4.89873C79.5261 4.89873 80.8965 5.50808 82.0326 6.72679C83.1687 7.9455 83.7367 9.439 83.7367 11.2073C83.7367 12.9757 83.1687 14.4692 82.0326 15.6879C80.8965 16.9066 79.5261 17.5159 77.9212 17.5159C76.2529 17.5159 74.9658 16.9345 74.0601 15.7715V21.8903C74.0601 21.9291 74.0286 21.9606 73.9898 21.9606H71.056C71.0171 21.9606 70.9856 21.9291 70.9856 21.8903V5.30366C70.9856 5.26479 71.0171 5.23328 71.056 5.23328H73.9898C74.0286 5.23328 74.0601 5.26479 74.0601 5.30366V6.64315C74.9658 5.4802 76.2529 4.89873 77.9212 4.89873ZM74.9897 13.6448C75.6094 14.2661 76.3959 14.5767 77.3492 14.5767C78.3026 14.5767 79.0931 14.2621 79.7207 13.6328C80.3483 13.0035 80.6621 12.1951 80.6621 11.2073C80.6621 10.2196 80.3483 9.41114 79.7207 8.78187C79.0931 8.1526 78.3026 7.83797 77.3492 7.83797C76.3959 7.83797 75.6094 8.1526 74.9897 8.78187C74.37 9.41114 74.0601 10.2196 74.0601 11.2073C74.0601 12.1951 74.37 13.0075 74.9897 13.6448ZM87.0932 3.7995C86.5848 3.7995 86.1438 3.61232 85.7704 3.23794C85.397 2.86356 85.2103 2.42149 85.2103 1.9117C85.2103 1.40191 85.397 0.955851 85.7704 0.57351C86.1438 0.191168 86.5848 0 87.0932 0C87.6176 0 88.0664 0.191168 88.4398 0.57351C88.8132 0.955851 88.9999 1.40191 88.9999 1.9117C88.9999 2.42149 88.8132 2.86356 88.4398 3.23794C88.0664 3.61232 87.6176 3.7995 87.0932 3.7995ZM85.5678 17.111V5.30366C85.5678 5.26479 85.5993 5.23328 85.6382 5.23328H88.572C88.6109 5.23328 88.6424 5.26479 88.6424 5.30366V17.111C88.6424 17.1499 88.6109 17.1814 88.572 17.1814H85.6382C85.5993 17.1814 85.5678 17.1499 85.5678 17.111ZM30.499 8.62654C30.499 8.94516 30.7096 9.20403 31.1306 9.40317C31.5517 9.60231 32.0641 9.77754 32.6679 9.92889C33.2717 10.0802 33.8755 10.2714 34.4793 10.5024C35.0831 10.7334 35.5955 11.1197 36.0166 11.6614C36.4377 12.203 36.6482 12.8801 36.6482 13.6925C36.6482 14.9192 36.1914 15.8631 35.2777 16.5242C34.3641 17.1854 33.2241 17.5159 31.8576 17.5159C29.4655 17.5159 27.8175 16.6101 26.9135 14.7984C26.9057 14.7828 26.8958 14.7626 26.8839 14.7378C26.8669 14.7028 26.8816 14.6607 26.9166 14.6438C26.9173 14.6435 26.918 14.6432 26.9187 14.6429L29.5048 13.494C29.5728 13.4638 29.6526 13.4918 29.6869 13.5579C29.6873 13.5586 29.6876 13.5593 29.688 13.56C30.0908 14.3334 30.814 14.7201 31.8576 14.7201C32.9539 14.7201 33.5021 14.3776 33.5021 13.6925C33.5021 13.3739 33.2916 13.1151 32.8705 12.9159C32.4495 12.7168 31.937 12.5376 31.3332 12.3783C30.7294 12.2189 30.1256 12.0198 29.5218 11.7808C28.9181 11.5419 28.4056 11.1635 27.9846 10.6458C27.5635 10.128 27.353 9.47884 27.353 8.69823C27.353 7.51934 27.7859 6.59138 28.6519 5.91432C29.5179 5.23726 30.5944 4.89873 31.8814 4.89873C32.8507 4.89873 33.7325 5.11777 34.527 5.55587C35.2483 5.95361 35.8234 6.47566 36.2681 7.17645C36.2907 7.21218 36.3212 7.26243 36.3594 7.3272C36.3792 7.36068 36.3681 7.40384 36.3346 7.42361C36.3323 7.42499 36.3298 7.42623 36.3274 7.42734L33.7346 8.5774C33.6888 8.59771 33.635 8.58183 33.6076 8.5399C33.2185 7.94449 32.6431 7.6468 31.8814 7.6468C31.4842 7.6468 31.1545 7.73441 30.8923 7.90965C30.6301 8.08489 30.499 8.32385 30.499 8.62654Z" fill="#CDD0D4"/>
</svg>
